<?xml version="1.0" encoding="UTF-8" standalone="no"?>
<!DOCTYPE svg PUBLIC "-//W3C//DTD SVG 1.1//EN" "http://www.w3.org/Graphics/SVG/1.1/DTD/svg11.dtd">
<svg width="100%" height="100%" viewBox="0 0 199 143" version="1.1" xmlns="http://www.w3.org/2000/svg" xmlns:xlink="http://www.w3.org/1999/xlink" xml:space="preserve" xmlns:serif="http://www.serif.com/" style="fill-rule:evenodd;clip-rule:evenodd;stroke-linecap:round;stroke-linejoin:round;stroke-miterlimit:1.5;">
    <g transform="matrix(1.5,0,0,1,-11,0)">
        <path d="M22,5.5C22,4.672 21.552,4 21,4C20.448,4 20,4.672 20,5.5L20,139.5C20,140.328 20.448,141 21,141C21.552,141 22,140.328 22,139.5L22,5.5Z"/>
    </g>
    <g transform="matrix(9.18485e-17,1.5,-1.42336,8.71555e-17,202.693,90.3333)">
        <path d="M22,5.054C22,4.472 21.552,4 21,4C20.448,4 20,4.472 20,5.054L20,139.946C20,140.528 20.448,141 21,141C21.552,141 22,140.528 22,139.946L22,5.054Z"/>
    </g>
    <g>
        <g transform="matrix(0.633106,-0.675774,0.198812,0.186259,26.1165,92.5674)">
            <path d="M22,7.399C22,5.523 21.552,4 21,4C20.448,4 20,5.523 20,7.399L20,137.601C20,139.477 20.448,141 21,141C21.552,141 22,139.477 22,137.601L22,7.399Z"/>
        </g>
        <g transform="matrix(0.725272,-0.714711,0.265805,0.269733,79.4617,56.266)">
            <path d="M22,6.689C22,5.205 21.552,4 21,4C20.448,4 20,5.205 20,6.689L20,138.311C20,139.795 20.448,141 21,141C21.552,141 22,139.795 22,138.311L22,6.689Z"/>
        </g>
        <g transform="matrix(-0.833877,-0.455136,0.293202,-0.537191,148.724,89.4948)">
            <path d="M22,5.552C22,4.696 21.552,4 21,4C20.448,4 20,4.696 20,5.552L20,139.448C20,140.304 20.448,141 21,141C21.552,141 22,140.304 22,139.448L22,5.552Z"/>
        </g>
        <g transform="matrix(-0.858128,-0.348009,0.181642,-0.447896,85.9977,111.281)">
            <path d="M22,5.916C22,4.858 21.552,4 21,4C20.448,4 20,4.858 20,5.916L20,139.084C20,140.142 20.448,141 21,141C21.552,141 22,140.142 22,139.084L22,5.916Z"/>
        </g>
        <g transform="matrix(0.777778,0,0,0.777778,15,22.2222)">
            <circle cx="67.5" cy="104.5" r="4.5" style="fill:rgb(253,201,68);stroke:black;stroke-width:1.33px;"/>
        </g>
        <g transform="matrix(0.777778,0,0,0.777778,79.5867,-2.65333)">
            <circle cx="67.5" cy="104.5" r="4.5" style="fill:rgb(253,201,68);stroke:black;stroke-width:1.33px;"/>
        </g>
        <g transform="matrix(0.777778,0,0,0.777778,41.6667,-39.8889)">
            <circle cx="67.5" cy="104.5" r="4.5" style="fill:rgb(253,201,68);stroke:black;stroke-width:1.33px;"/>
        </g>
        <g transform="matrix(0.777778,0,0,0.777778,119.513,-76.0578)">
            <circle cx="67.5" cy="104.5" r="4.5" style="fill:rgb(253,201,68);stroke:black;stroke-width:1.33px;"/>
        </g>
    </g>
    <g transform="matrix(0.918919,0,0,0.918919,12.0697,4.07351)">
        <circle cx="150.587" cy="49.5" r="18.5" style="fill:white;stroke:black;stroke-width:4.19px;"/>
    </g>
    <g transform="matrix(0.450447,-0.45077,0.680974,0.680485,44.6155,101.175)">
        <path d="M184,72.979C184,71.335 181.984,70 179.5,70L170.5,70C168.016,70 166,71.335 166,72.979L166,102.021C166,103.665 168.016,105 170.5,105L179.5,105C181.984,105 184,103.665 184,102.021L184,72.979Z" style="fill:rgb(253,201,68);stroke:black;stroke-width:2.45px;"/>
    </g>
    <g transform="matrix(0.725272,-0.714711,0.0710576,0.0721077,143.961,77.2165)">
        <path d="M22,14.058C22,8.507 21.552,4 21,4C20.448,4 20,8.507 20,14.058L20,130.942C20,136.493 20.448,141 21,141C21.552,141 22,136.493 22,130.942L22,14.058Z"/>
    </g>
    <g transform="matrix(0.725272,-0.714711,0.0710576,0.0721077,148.041,73.1365)">
        <path d="M22,14.058C22,8.507 21.552,4 21,4C20.448,4 20,8.507 20,14.058L20,130.942C20,136.493 20.448,141 21,141C21.552,141 22,136.493 22,130.942L22,14.058Z"/>
    </g>
    <path d="M144.13,61.539L148.563,63.407L151,57L154.925,62.719L158.356,60.261L154.618,54.731L164.244,50.789L162.657,47L153.311,50.635L158,38L154.358,36.256L144.13,61.539Z"/>
    <path d="M145.539,50.846L151.649,35.787L149.488,34.973L146.386,42.232L143,39L141,40.991L144.13,44L139.051,47.13L140.437,49.307L145.051,46.256L143.405,50.021L145.539,50.846Z" style="fill:rgb(253,201,68);"/>
</svg>
