<?xml version="1.0" encoding="iso-8859-1"?>
<!-- Generator: Adobe Illustrator 26.0.3, SVG Export Plug-In . SVG Version: 6.00 Build 0)  -->
<svg version="1.1" id="Calque_1" xmlns="http://www.w3.org/2000/svg" xmlns:xlink="http://www.w3.org/1999/xlink" x="0px" y="0px"
	 width="184.168px" height="165.642px" viewBox="0 0 184.168 165.642" enable-background="new 0 0 184.168 165.642"
	 xml:space="preserve">
<g>
	<path fill="#211F2D" d="M62.094,101.671l-20.64-19.957c-1.285-1.242-0.405-3.416,1.381-3.416h12.455
		c0.525,0,1.028,0.208,1.401,0.578l15.123,15.027c1.254,1.246,3.388,0.358,3.388-1.41v-55.27c0-1.097,0.89-1.987,1.987-1.987H57.401
		c-13.945,0-25.354,9.789-25.354,21.752v58.218c0,6.414,3.298,12.185,8.489,16.175l21.726-27.038
		C62.905,103.543,62.833,102.384,62.094,101.671z M39.49,63.426v-2.271c0-2.284,1.852-4.137,4.136-4.137h9.163
		c2.285,0,4.136,1.852,4.136,4.137v2.271c0,2.285-1.852,4.137-4.136,4.137h-9.163C41.342,67.562,39.49,65.71,39.49,63.426z"/>
	<path fill="#211F2D" d="M75.202,134.972v-19.775c0-0.527-0.209-1.032-0.582-1.405c-0.843-0.843-2.234-0.759-2.97,0.18
		l-17.413,22.226c-0.162,0.207-0.366,0.368-0.589,0.494c1.229,0.159,2.475,0.267,3.753,0.267h19.788
		C76.092,136.959,75.202,136.069,75.202,134.972z"/>
	<path fill="#211F2D" d="M114.086,113.971c-0.735-0.939-2.126-1.023-2.969-0.18c-0.373,0.373-0.582,0.878-0.582,1.405v19.775
		c0,1.097-0.89,1.987-1.987,1.987h17.354c1.984,0,3.908-0.219,5.764-0.593c-0.056-0.056-0.117-0.106-0.166-0.169L114.086,113.971z"
		/>
	<path fill="#211F2D" d="M151.255,115.206V56.989c0-11.964-11.41-21.752-25.354-21.752h-17.354c1.098,0,1.987,0.89,1.987,1.987
		v55.27c0,1.767,2.134,2.655,3.388,1.41l15.123-15.027c0.372-0.37,0.876-0.578,1.401-0.578H142.9c1.787,0,2.666,2.174,1.381,3.416
		l-20.64,19.957c-0.738,0.714-0.811,1.873-0.168,2.673l20.754,25.828C148.567,126.264,151.255,120.996,151.255,115.206z"/>
	<path fill="#211F2D" d="M96.983,134.972V37.223c0-1.097,0.89-1.987,1.987-1.987H86.766c1.098,0,1.987,0.89,1.987,1.987v97.748
		c0,1.097-0.89,1.987-1.987,1.987h12.205C97.873,136.959,96.983,136.069,96.983,134.972z"/>
</g>
<g>
</g>
<g>
</g>
<g>
</g>
<g>
</g>
<g>
</g>
<g>
</g>
</svg>
