<?xml version="1.0" encoding="iso-8859-1"?>
<!-- Generator: Adobe Illustrator 26.0.3, SVG Export Plug-In . SVG Version: 6.00 Build 0)  -->
<svg version="1.1" id="Calque_1" xmlns="http://www.w3.org/2000/svg" xmlns:xlink="http://www.w3.org/1999/xlink" x="0px" y="0px"
	 width="741.031px" height="322.567px" viewBox="0 0 741.031 322.567" enable-background="new 0 0 741.031 322.567"
	 xml:space="preserve">
<g>
	<path fill="#211F2D" d="M95.612,180.547l-20.64-19.957c-1.285-1.242-0.405-3.416,1.381-3.416h12.455
		c0.525,0,1.028,0.208,1.401,0.578l15.123,15.027c1.254,1.246,3.388,0.358,3.388-1.41v-55.27c0-1.097,0.89-1.987,1.987-1.987H90.919
		c-13.945,0-25.354,9.789-25.354,21.752v58.218c0,6.414,3.298,12.185,8.489,16.175l21.726-27.038
		C96.423,182.419,96.35,181.26,95.612,180.547z M73.008,142.301v-2.271c0-2.284,1.852-4.137,4.136-4.137h9.163
		c2.285,0,4.136,1.852,4.136,4.137v2.271c0,2.285-1.852,4.137-4.136,4.137h-9.163C74.86,146.438,73.008,144.586,73.008,142.301z"/>
	<path fill="#211F2D" d="M108.719,213.848v-19.775c0-0.527-0.209-1.032-0.582-1.405c-0.843-0.843-2.234-0.759-2.97,0.18
		l-17.413,22.226c-0.162,0.207-0.366,0.368-0.589,0.494c1.229,0.159,2.475,0.267,3.753,0.267h19.788
		C109.609,215.835,108.719,214.945,108.719,213.848z"/>
	<path fill="#211F2D" d="M147.603,192.847c-0.735-0.939-2.126-1.023-2.969-0.18c-0.373,0.373-0.582,0.878-0.582,1.405v19.775
		c0,1.097-0.89,1.987-1.987,1.987h17.354c1.984,0,3.908-0.219,5.764-0.593c-0.056-0.056-0.117-0.106-0.166-0.169L147.603,192.847z"
		/>
	<path fill="#211F2D" d="M184.773,194.082v-58.218c0-11.964-11.41-21.752-25.354-21.752h-17.354c1.098,0,1.987,0.89,1.987,1.987
		v55.27c0,1.767,2.134,2.655,3.388,1.41l15.123-15.027c0.372-0.37,0.876-0.578,1.401-0.578h12.455c1.787,0,2.666,2.174,1.381,3.416
		l-20.64,19.957c-0.738,0.714-0.811,1.873-0.168,2.673l20.754,25.828C182.084,205.14,184.773,199.872,184.773,194.082z"/>
	<path fill="#211F2D" d="M130.501,213.848v-97.748c0-1.097,0.89-1.987,1.987-1.987h-12.205c1.098,0,1.987,0.89,1.987,1.987v97.748
		c0,1.097-0.89,1.987-1.987,1.987h12.205C131.391,215.835,130.501,214.945,130.501,213.848z"/>
</g>
<path fill="#FDC945" d="M559.086,86.371v78.562c0,2.512,3.034,3.774,4.816,2.004l21.496-21.36c0.529-0.526,1.245-0.821,1.991-0.821
	h17.704c2.54,0,3.789,3.09,1.964,4.855l-29.338,28.367c-1.049,1.015-1.153,2.662-0.238,3.8l33.56,41.765
	c1.485,1.849,0.169,4.594-2.202,4.594h-17.729c-0.868,0-1.688-0.399-2.224-1.083l-24.751-31.592
	c-1.045-1.334-3.022-1.454-4.221-0.255l0,0c-0.53,0.53-0.827,1.248-0.827,1.997v28.108c0,1.56-1.265,2.825-2.825,2.825h-13.612
	c-1.56,0-2.825-1.265-2.825-2.825V86.371c0-1.56,1.265-2.825,2.825-2.825h13.612C557.821,83.546,559.086,84.811,559.086,86.371z"/>
<path fill="#FDC945" d="M527.411,86.371v138.942c0,1.56-1.265,2.825-2.825,2.825h-13.612c-1.56,0-2.825-1.265-2.825-2.825v-28.108
	c0-0.749-0.298-1.468-0.827-1.997h0c-1.199-1.199-3.176-1.079-4.221,0.255l-24.751,31.592c-0.535,0.683-1.355,1.083-2.224,1.083
	h-17.729c-2.371,0-3.687-2.745-2.202-4.594l33.56-41.765c0.914-1.138,0.811-2.785-0.238-3.8l-29.338-28.367
	c-1.826-1.765-0.576-4.855,1.963-4.855h17.704c0.746,0,1.462,0.295,1.991,0.821l21.496,21.36c1.782,1.771,4.816,0.509,4.816-2.004
	V86.371c0-1.56,1.265-2.825,2.825-2.825h13.612C526.146,83.546,527.411,84.811,527.411,86.371z"/>
<path fill="#FDC945" d="M662.777,162.811l-8.307,4.422c-1.634,0.87-3.693,0.426-4.755-1.09c-2.005-2.863-4.348-4.295-7.027-4.295
	c-1.64,0-3.04,0.54-4.202,1.623c-1.164,1.083-1.744,2.468-1.744,4.156c0,2.958,3.434,5.888,10.307,8.792
	c9.46,4.064,15.829,7.811,19.107,11.243c3.276,3.432,4.915,8.051,4.915,13.858c0,7.444-2.75,13.674-8.245,18.688
	c-5.339,4.753-11.788,7.127-19.345,7.127c-11.683,0-20.29-5.14-25.82-15.423c-1.008-1.874-0.182-4.224,1.748-5.119l8.729-4.046
	c1.703-0.79,3.74-0.184,4.733,1.41c1.31,2.102,2.363,3.512,3.158,4.231c2.166,2.009,4.757,3.013,7.77,3.013
	c6.025,0,9.038-2.748,9.038-8.245c0-3.13-2.266-6.053-6.798-8.773c-0.116-0.07-0.242-0.138-0.363-0.199
	c-1.737-0.865-3.472-1.706-5.207-2.524c-1.798-0.845-3.622-1.717-5.47-2.616c-5.18-2.537-8.827-5.074-10.941-7.611
	c-2.696-3.223-4.043-7.373-4.043-12.447c0-6.712,2.299-12.262,6.898-16.649c4.703-4.388,10.411-6.58,17.125-6.58
	c8.717,0,15.46,3.968,20.231,11.903C665.352,159.461,664.636,161.821,662.777,162.811z"/>
<path fill="#FDC945" d="M277.409,85.949v61.835c0,2.286,2.647,3.584,4.429,2.153c6.567-5.273,13.812-7.908,21.735-7.908
	c11.228,0,20.577,4.19,28.045,12.569c7.466,8.323,11.201,18.698,11.201,31.123c0,12.825-3.762,23.428-11.286,31.807
	c-7.468,8.323-16.903,12.483-28.301,12.483c-7.829,0-14.982-2.447-21.456-7.342c-1.794-1.357-4.366-0.048-4.366,2.201v0
	c0,1.517-1.23,2.747-2.747,2.747h-16.491V85.949c0-1.517,1.23-2.747,2.747-2.747h13.745
	C276.179,83.202,277.409,84.432,277.409,85.949z M323.153,186.575c0-7.979-2.167-14.477-6.498-19.495
	c-4.39-5.13-9.889-7.695-16.502-7.695c-7.067,0-12.825,2.48-17.272,7.439c-4.39,4.903-6.584,11.286-6.584,19.153
	c0,8.096,2.167,14.565,6.498,19.409c4.331,4.959,10.033,7.439,17.101,7.439c6.669,0,12.198-2.48,16.588-7.439
	C320.93,200.37,323.153,194.099,323.153,186.575z"/>
<path fill="#FDC945" d="M358.474,146.731h14.802c1.225,0,2.218,0.993,2.218,2.218l0,0c0,1.911,2.259,2.907,3.693,1.645
	c2.066-1.818,3.97-3.163,5.712-4.034c2.792-1.424,6.098-2.138,9.918-2.138c4.506,0,9.194,1.306,14.063,3.915
	c1.042,0.559,1.425,1.875,0.897,2.932l-6.755,13.509c-0.569,1.138-1.99,1.569-3.084,0.919c-2.962-1.757-5.865-2.637-8.711-2.637
	c-10.49,0-15.733,7.925-15.733,23.77v43.179h-19.238v-81.061C356.256,147.724,357.249,146.731,358.474,146.731z"/>
<path fill="#211F2D" d="M421.359,137.01h58.317c0.864,0,1.565-0.701,1.565-1.565v-11.858c0-0.864-0.701-1.565-1.565-1.565h-58.317
	c-0.864,0-1.565,0.701-1.565,1.565v11.858C419.794,136.309,420.494,137.01,421.359,137.01z"/>
<path fill="#FDC945" d="M439.048,149.891c0-1.991-1.614-3.605-3.605-3.605h-12.02c-1.991,0-3.605,1.614-3.605,3.605v3.132
	c-0.003,0.081-0.024,0.157-0.024,0.239v76.748c0,0,0,0,0,0h19.238c0,0,0.001,0,0.001,0v-76.541c0.002-0.055,0.016-0.106,0.016-0.162
	V149.891z"/>
<g>
</g>
<g>
</g>
<g>
</g>
<g>
</g>
<g>
</g>
<g>
</g>
</svg>
