<?xml version="1.0" encoding="UTF-8" standalone="no"?>
<!DOCTYPE svg PUBLIC "-//W3C//DTD SVG 1.1//EN" "http://www.w3.org/Graphics/SVG/1.1/DTD/svg11.dtd">
<svg width="100%" height="100%" viewBox="0 0 120 102" version="1.1" xmlns="http://www.w3.org/2000/svg" xmlns:xlink="http://www.w3.org/1999/xlink" xml:space="preserve" xmlns:serif="http://www.serif.com/" style="fill-rule:evenodd;clip-rule:evenodd;stroke-linejoin:round;stroke-miterlimit:2;">
    <g transform="matrix(1,0,0,1,-32.047,-35.236)">
        <path d="M62.094,101.671L41.454,81.714C40.169,80.472 41.049,78.298 42.835,78.298L55.29,78.298C55.815,78.298 56.318,78.506 56.691,78.876L71.814,93.903C73.068,95.149 75.202,94.261 75.202,92.493L75.202,37.223C75.202,36.126 76.092,35.236 77.189,35.236L57.401,35.236C43.456,35.236 32.047,45.025 32.047,56.988L32.047,115.206C32.047,121.62 35.345,127.391 40.536,131.381L62.262,104.343C62.905,103.543 62.833,102.384 62.094,101.671ZM39.49,63.426L39.49,61.155C39.49,58.871 41.342,57.018 43.626,57.018L52.789,57.018C55.074,57.018 56.925,58.87 56.925,61.155L56.925,63.426C56.925,65.711 55.073,67.563 52.789,67.563L43.626,67.563C41.342,67.562 39.49,65.71 39.49,63.426Z" style="fill:rgb(33,31,45);fill-rule:nonzero;"/>
        <path d="M75.202,134.972L75.202,115.197C75.202,114.67 74.993,114.165 74.62,113.792C73.777,112.949 72.386,113.033 71.65,113.972L54.237,136.198C54.075,136.405 53.871,136.566 53.648,136.692C54.877,136.851 56.123,136.959 57.401,136.959L77.189,136.959C76.092,136.959 75.202,136.069 75.202,134.972Z" style="fill:rgb(33,31,45);fill-rule:nonzero;"/>
        <path d="M114.086,113.971C113.351,113.032 111.96,112.948 111.117,113.791C110.744,114.164 110.535,114.669 110.535,115.196L110.535,134.971C110.535,136.068 109.645,136.958 108.548,136.958L125.902,136.958C127.886,136.958 129.81,136.739 131.666,136.365C131.61,136.309 131.549,136.259 131.5,136.196L114.086,113.971Z" style="fill:rgb(33,31,45);fill-rule:nonzero;"/>
        <path d="M151.255,115.206L151.255,56.989C151.255,45.025 139.845,35.237 125.901,35.237L108.547,35.237C109.645,35.237 110.534,36.127 110.534,37.224L110.534,92.494C110.534,94.261 112.668,95.149 113.922,93.904L129.045,78.877C129.417,78.507 129.921,78.299 130.446,78.299L142.9,78.299C144.687,78.299 145.566,80.473 144.281,81.715L123.641,101.672C122.903,102.386 122.83,103.545 123.473,104.345L144.227,130.173C148.567,126.264 151.255,120.996 151.255,115.206Z" style="fill:rgb(33,31,45);fill-rule:nonzero;"/>
        <path d="M96.983,134.972L96.983,37.223C96.983,36.126 97.873,35.236 98.97,35.236L86.766,35.236C87.864,35.236 88.753,36.126 88.753,37.223L88.753,134.971C88.753,136.068 87.863,136.958 86.766,136.958L98.971,136.958C97.873,136.959 96.983,136.069 96.983,134.972Z" style="fill:rgb(33,31,45);fill-rule:nonzero;"/>
    </g>
</svg>
