<?xml version="1.0" encoding="UTF-8" standalone="no"?>
<svg
   xmlns:dc="http://purl.org/dc/elements/1.1/"
   xmlns:cc="http://creativecommons.org/ns#"
   xmlns:rdf="http://www.w3.org/1999/02/22-rdf-syntax-ns#"
   xmlns:svg="http://www.w3.org/2000/svg"
   xmlns="http://www.w3.org/2000/svg"
   xmlns:sodipodi="http://sodipodi.sourceforge.net/DTD/sodipodi-0.dtd"
   xmlns:inkscape="http://www.inkscape.org/namespaces/inkscape"
   width="24"
   height="24"
   viewBox="0 0 24 24"
   version="1.1"
   id="svg841"
   sodipodi:docname="Code.svg"
   inkscape:version="1.0.1 (c497b03c, 2020-09-10)"
   inkscape:export-filename="/Users/maelleconvoicar/Desktop/code.png"
   inkscape:export-xdpi="96"
   inkscape:export-ydpi="96">
  <metadata
     id="metadata847">
    <rdf:RDF>
      <cc:Work
         rdf:about="">
        <dc:format>image/svg+xml</dc:format>
        <dc:type
           rdf:resource="http://purl.org/dc/dcmitype/StillImage" />
        <dc:title></dc:title>
      </cc:Work>
    </rdf:RDF>
  </metadata>
  <defs
     id="defs845" />
  <sodipodi:namedview
     pagecolor="#ffffff"
     bordercolor="#666666"
     borderopacity="1"
     objecttolerance="10"
     gridtolerance="10"
     guidetolerance="10"
     inkscape:pageopacity="0"
     inkscape:pageshadow="2"
     inkscape:window-width="1440"
     inkscape:window-height="900"
     id="namedview843"
     showgrid="false"
     inkscape:zoom="22.5"
     inkscape:cx="12"
     inkscape:cy="12"
     inkscape:window-x="0"
     inkscape:window-y="0"
     inkscape:window-maximized="0"
     inkscape:current-layer="g839" />
  <g
     fill="none"
     fill-rule="evenodd"
     id="g839">
    <path
       d="M0 0h24v24H0z"
       id="path833" />
    <path
       d="M17.272 8.685a1 1 0 111.456-1.37l4 4.25a1 1 0 010 1.37l-4 4.25a1 1 0 01-1.456-1.37l3.355-3.565-3.355-3.565zm-10.544 0L3.373 12.25l3.355 3.565a1 1 0 01-1.456 1.37l-4-4.25a1 1 0 010-1.37l4-4.25a1 1 0 011.456 1.37z"
       fill="#335EEA"
       id="path835"
       style="fill:#fdc947;fill-opacity:1" />
    <rect
       fill="#335EEA"
       opacity=".3"
       transform="rotate(15 12 12)"
       x="11"
       y="4"
       width="2"
       height="16"
       rx="1"
       id="rect837"
       style="fill:#fdc947;fill-opacity:1" />
  </g>
</svg>
