<?xml version="1.0" encoding="UTF-8" standalone="no"?>
<svg
   xmlns:dc="http://purl.org/dc/elements/1.1/"
   xmlns:cc="http://creativecommons.org/ns#"
   xmlns:rdf="http://www.w3.org/1999/02/22-rdf-syntax-ns#"
   xmlns:svg="http://www.w3.org/2000/svg"
   xmlns="http://www.w3.org/2000/svg"
   width="24"
   height="24"
   viewBox="0 0 24 24"
   version="1.1"
   id="svg841">
  <metadata
     id="metadata847">
    <rdf:RDF>
      <cc:Work
         rdf:about="">
        <dc:format>image/svg+xml</dc:format>
        <dc:type
           rdf:resource="http://purl.org/dc/dcmitype/StillImage" />
        <dc:title></dc:title>
      </cc:Work>
    </rdf:RDF>
  </metadata>
  <defs
     id="defs845" />
  <g
     fill="none"
     fill-rule="evenodd"
     id="g839">
    <path
       d="M0 0h24v24H0z"
       id="path833" />
    <path
       d="M11 20v-3a1 1 0 012 0v3h2.5a.5.5 0 110 1h-7a.5.5 0 110-1H11z"
       fill="#335EEA"
       opacity=".3"
       id="path835"
       style="fill:#fdc947;fill-opacity:1" />
    <path
       d="M3 5h18a1 1 0 011 1v10a1 1 0 01-1 1H3a1 1 0 01-1-1V6a1 1 0 011-1zm1.5 3a.5.5 0 000 1h9a.5.5 0 100-1h-9zm0 2a.5.5 0 100 1h3a.5.5 0 100-1h-3z"
       fill="#335EEA"
       id="path837"
       style="fill:#fdc947;fill-opacity:1" />
  </g>
</svg>
