<?xml version="1.0" encoding="UTF-8" standalone="no"?>
<svg
   xmlns:dc="http://purl.org/dc/elements/1.1/"
   xmlns:cc="http://creativecommons.org/ns#"
   xmlns:rdf="http://www.w3.org/1999/02/22-rdf-syntax-ns#"
   xmlns:svg="http://www.w3.org/2000/svg"
   xmlns="http://www.w3.org/2000/svg"
   width="24"
   height="24"
   viewBox="0 0 24 24"
   version="1.1"
   id="svg857">
  <metadata
     id="metadata863">
    <rdf:RDF>
      <cc:Work
         rdf:about="">
        <dc:format>image/svg+xml</dc:format>
        <dc:type
           rdf:resource="http://purl.org/dc/dcmitype/StillImage" />
        <dc:title></dc:title>
      </cc:Work>
    </rdf:RDF>
  </metadata>
  <defs
     id="defs861" />
  <g
     fill="none"
     fill-rule="evenodd"
     id="g855">
    <path
       d="M0 0h24v24H0z"
       id="path849" />
    <path
       d="M3.5 21h17a1.5 1.5 0 001.5-1.5v-11A1.5 1.5 0 0020.5 7H10L7.44 4.44A1.5 1.5 0 006.378 4H3.5A1.5 1.5 0 002 5.5v14A1.5 1.5 0 003.5 21z"
       fill="#335EEA"
       opacity=".3"
       id="path851"
       style="fill:#fdc947;fill-opacity:1" />
    <path
       d="M8.637 16.463A3.5 3.5 0 1113.965 13H15a2 2 0 110 4h-5a1.993 1.993 0 01-1.363-.537z"
       fill="#335EEA"
       id="path853"
       style="fill:#fdc947;fill-opacity:1" />
  </g>
</svg>
