<?xml version="1.0" encoding="UTF-8" standalone="no"?>
<svg
   xmlns:dc="http://purl.org/dc/elements/1.1/"
   xmlns:cc="http://creativecommons.org/ns#"
   xmlns:rdf="http://www.w3.org/1999/02/22-rdf-syntax-ns#"
   xmlns:svg="http://www.w3.org/2000/svg"
   xmlns="http://www.w3.org/2000/svg"
   width="24"
   height="24"
   viewBox="0 0 24 24"
   version="1.1"
   id="svg841">
  <metadata
     id="metadata847">
    <rdf:RDF>
      <cc:Work
         rdf:about="">
        <dc:format>image/svg+xml</dc:format>
        <dc:type
           rdf:resource="http://purl.org/dc/dcmitype/StillImage" />
        <dc:title></dc:title>
      </cc:Work>
    </rdf:RDF>
  </metadata>
  <defs
     id="defs845" />
  <g
     fill="none"
     fill-rule="evenodd"
     id="g839">
    <path
       d="M0 0h24v24H0z"
       id="path833" />
    <path
       d="M8 2.5c-.69 0-1.25.56-1.25 1.25v16.5c0 .69.56 1.25 1.25 1.25h8c.69 0 1.25-.56 1.25-1.25V3.75c0-.69-.56-1.25-1.25-1.25H8z"
       fill="#335EEA"
       opacity=".3"
       id="path835"
       style="fill:#fdc947;fill-opacity:1" />
    <path
       d="M8 2.5c-.69 0-1.25.56-1.25 1.25v16.5c0 .69.56 1.25 1.25 1.25h8c.69 0 1.25-.56 1.25-1.25V3.75c0-.69-.56-1.25-1.25-1.25H8zM8 1h8a2.75 2.75 0 012.75 2.75v16.5A2.75 2.75 0 0116 23H8a2.75 2.75 0 01-2.75-2.75V3.75A2.75 2.75 0 018 1zm1.5.75h5a.5.5 0 01.5.5v1a.5.5 0 01-.5.5h-5a.5.5 0 01-.5-.5v-1a.5.5 0 01.5-.5z"
       fill="#335EEA"
       id="path837"
       style="fill:#fdc947;fill-opacity:1" />
  </g>
</svg>
