<?xml version="1.0" encoding="UTF-8"?><svg xmlns="http://www.w3.org/2000/svg" xmlns:xlink="http://www.w3.org/1999/xlink" viewBox="0 0 197.77203 141.48827"><defs><style>.e,.f{fill:none;}.g,.h{fill:#fdc945;}.i{fill:#fff;}.j{fill:#1d1d1b;}.h,.f{stroke:#1d1d1b;stroke-linecap:round;stroke-miterlimit:10;stroke-width:2px;}.k{clip-path:url(#d);}</style><clipPath id="d"><circle class="e" cx="149.70605" cy="48.51845" r="14.2254"/></clipPath></defs><g id="a"/><g id="b"><g id="c"><line class="f" x1="19.67046" y1="4.26926" x2="19.67046" y2="140.48827"/><line class="f" x1="196.06557" y1="120.87355" x2="1" y2="120.87355"/><line class="f" x1="155.10489" y1="33.31667" x2="171.146" y2="4.26926"/><polyline class="f" points="39.286 78.3724 66.5298 104.52645 93.084 40.23108 130.82517 77.28265 139.06378 62.36409"/><circle class="h" cx="66.5298" cy="102.61938" r="3.26926"/><circle class="h" cx="93.084" cy="40.15647" r="3.26926"/><circle class="h" cx="131.2579" cy="77.7562" r="3.26926"/><circle class="h" cx="171.146" cy="4.26926" r="3.26926"/><g><path class="f" d="M162.59475,57.39519l9.48912,9.48912c1.10329,1.10329,1.10329,2.90868,0,4.01197h0c-1.10329,1.1033-2.90868,1.1033-4.01197,0l-9.8744-9.8744"/><rect class="h" x="176.40799" y="63.73003" width="11.46818" height="34.4489" rx="3.86154" ry="3.86154" transform="translate(-3.89528 152.50491) rotate(-45)"/><path class="j" d="M136.66138,35.47349c-7.20447,7.20447-7.20473,18.88552-.00023,26.09003,7.20447,7.20447,18.88552,7.2042,26.08999-.00026,7.20447-7.20447,7.20443-18.88522-.00004-26.08969-7.20451-7.20451-18.88526-7.20454-26.08973-.00008Zm22.83518,22.83518c-5.40713,5.40713-14.17376,5.40725-19.58078,.00023-5.40702-5.40702-5.40691-14.17364,.00023-19.58078,5.40683-5.40683,14.17346-5.40694,19.58048,.00008,5.40702,5.40702,5.40691,14.17364,.00008,19.58048Z"/></g><circle class="i" cx="149.70605" cy="48.51845" r="14.2254"/><g class="k"><g><path class="g" d="M150.45377,34.60426l-5.28611,15.17988c-.05935,.17044-.24563,.26049-.41607,.20114l-1.4872-.51789c-.17044-.05935-.26049-.24563-.20114-.41607l1.06939-3.07091c.0285-.08185,.02332-.17167-.0144-.24969h0c-.08535-.17655-.30589-.2387-.47086-.13269l-3.90608,2.50989c-.0845,.05429-.18927,.06672-.28412,.03369l-1.93692-.6745c-.25908-.09022-.29839-.44024-.06578-.58568l5.25557-3.28621c.1432-.08954,.19458-.27344,.11852-.42423l-2.12604-4.21536c-.1323-.26232,.12179-.55238,.39924-.45576l1.93419,.67354c.08151,.02838,.14848,.08786,.18629,.16545l1.53582,3.15147c.12732,.26126,.50678,.23878,.60236-.03569l2.98893-8.58319c.05935-.17044,.24563-.26049,.41607-.20114l1.4872,.51789c.17044,.05935,.26049,.24563,.20114,.41607Z"/><path class="j" d="M160.30121,67.50557l2.11843,6.03642c.19705,.5615-.34369,1.10123-.90482,.90312l-4.19512-1.48106c-.20543-.07253-.36611-.2355-.43571-.44194l-1.18179-3.50517-2.353-6.32177-2.03581-6.03816c-.1359-.40307-.59371-.59652-.97746-.41303h0c-.1696,.0811-.30004,.22625-.36263,.40352l-2.34815,6.65119c-.13032,.36915-.53523,.56275-.90438,.43243l-3.22107-1.13717c-.36915-.13032-.56275-.53523-.43243-.90438l11.6072-32.87761c.13032-.36915,.53523-.56275,.90438-.43243l3.22107,1.13717c.36915,.13032,.56275,.53523,.43243,.90438l-6.56308,18.59005c-.20987,.59446,.40254,1.14657,.97215,.87643l6.87091-3.25865c.16916-.08023,.36318-.09027,.53972-.02795l4.1892,1.47896c.60092,.21215,.63847,1.04776,.059,1.31294l-9.31196,4.26153c-.33311,.15244-.49518,.5336-.37387,.87927l2.3338,6.65012,2.353,6.32177Z"/></g></g></g></g></svg>