<?xml version="1.0" encoding="UTF-8" standalone="no"?>
<svg
   xmlns:dc="http://purl.org/dc/elements/1.1/"
   xmlns:cc="http://creativecommons.org/ns#"
   xmlns:rdf="http://www.w3.org/1999/02/22-rdf-syntax-ns#"
   xmlns:svg="http://www.w3.org/2000/svg"
   xmlns="http://www.w3.org/2000/svg"
   width="24"
   height="24"
   viewBox="0 0 24 24"
   version="1.1"
   id="svg843">
  <metadata
     id="metadata849">
    <rdf:RDF>
      <cc:Work
         rdf:about="">
        <dc:format>image/svg+xml</dc:format>
        <dc:type
           rdf:resource="http://purl.org/dc/dcmitype/StillImage" />
        <dc:title></dc:title>
      </cc:Work>
    </rdf:RDF>
  </metadata>
  <defs
     id="defs847" />
  <g
     fill="none"
     fill-rule="evenodd"
     id="g841">
    <path
       d="M0 0h24v24H0z"
       id="path833" />
    <circle
       fill="#335eea"
       opacity="0.3"
       cx="12"
       cy="9"
       id="circle835"
       r="8"
       style="fill:#fdc947;fill-opacity:1" />
    <path
       d="M14.53 11H9.462l2.514 6.465L14.53 11zm-3.962 8.362L6.538 9H17.47l-4.096 10.367-1.398-.552-1.408.547zM10 22h4a2 2 0 11-4 0z"
       fill="#335EEA"
       opacity=".3"
       id="path837"
       style="fill:#fdc947;fill-opacity:1" />
    <path
       d="M9 20a1 1 0 010-2 1 1 0 010-2h6a1 1 0 010 2 1 1 0 010 2 1 1 0 010 2H9a1 1 0 010-2z"
       fill="#335EEA"
       id="path839"
       style="fill:#fdc947;fill-opacity:1" />
  </g>
</svg>
