<?xml version="1.0" encoding="UTF-8" standalone="no"?>
<svg
   xmlns:dc="http://purl.org/dc/elements/1.1/"
   xmlns:cc="http://creativecommons.org/ns#"
   xmlns:rdf="http://www.w3.org/1999/02/22-rdf-syntax-ns#"
   xmlns:svg="http://www.w3.org/2000/svg"
   xmlns="http://www.w3.org/2000/svg"
   xmlns:sodipodi="http://sodipodi.sourceforge.net/DTD/sodipodi-0.dtd"
   xmlns:inkscape="http://www.inkscape.org/namespaces/inkscape"
   width="24"
   height="24"
   viewBox="0 0 24 24"
   version="1.1"
   id="svg841"
   sodipodi:docname="Chart-line#1.svg"
   inkscape:export-filename="/Users/maelleconvoicar/Desktop/Chart-#1.png"
   inkscape:export-xdpi="96"
   inkscape:export-ydpi="96"
   inkscape:version="1.0.1 (c497b03c, 2020-09-10)">
  <sodipodi:namedview
     pagecolor="#ffffff"
     bordercolor="#666666"
     borderopacity="1"
     objecttolerance="10"
     gridtolerance="10"
     guidetolerance="10"
     inkscape:pageopacity="0"
     inkscape:pageshadow="2"
     inkscape:window-width="1440"
     inkscape:window-height="900"
     id="namedview848"
     showgrid="false"
     inkscape:zoom="22.541667"
     inkscape:cx="12"
     inkscape:cy="12"
     inkscape:window-x="0"
     inkscape:window-y="0"
     inkscape:window-maximized="0"
     inkscape:current-layer="svg841" />
  <metadata
     id="metadata847">
    <rdf:RDF>
      <cc:Work
         rdf:about="">
        <dc:format>image/svg+xml</dc:format>
        <dc:type
           rdf:resource="http://purl.org/dc/dcmitype/StillImage" />
        <dc:title />
      </cc:Work>
    </rdf:RDF>
  </metadata>
  <defs
     id="defs845" />
  <g
     fill="none"
     fill-rule="evenodd"
     id="g839">
    <path
       d="M0 0h24v24H0z"
       id="path833" />
    <path
       d="M5 19h15a1 1 0 010 2H4a1 1 0 01-1-1V4a1 1 0 112 0v15z"
       fill="#335EEA"
       id="path835"
       style="fill:#fdc947;fill-opacity:1" />
    <path
       d="M8.73 14.684a1 1 0 11-1.46-1.368l3.75-4a1 1 0 011.38-.077l2.959 2.526 3.856-4.885a1 1 0 011.57 1.24l-4.5 5.7a1 1 0 01-1.434.14l-3.024-2.58-3.097 3.304z"
       fill="#335EEA"
       opacity=".3"
       id="path837"
       style="fill:#fdc947;fill-opacity:1" />
  </g>
</svg>
