<?xml version="1.0" encoding="UTF-8" standalone="no"?>
<svg
   xmlns:dc="http://purl.org/dc/elements/1.1/"
   xmlns:cc="http://creativecommons.org/ns#"
   xmlns:rdf="http://www.w3.org/1999/02/22-rdf-syntax-ns#"
   xmlns:svg="http://www.w3.org/2000/svg"
   xmlns="http://www.w3.org/2000/svg"
   width="24"
   height="24"
   viewBox="0 0 24 24"
   version="1.1"
   id="svg845">
  <metadata
     id="metadata851">
    <rdf:RDF>
      <cc:Work
         rdf:about="">
        <dc:format>image/svg+xml</dc:format>
        <dc:type
           rdf:resource="http://purl.org/dc/dcmitype/StillImage" />
        <dc:title></dc:title>
      </cc:Work>
    </rdf:RDF>
  </metadata>
  <defs
     id="defs849" />
  <g
     fill="none"
     fill-rule="evenodd"
     id="g843">
    <path
       d="M0 0h24v24H0z"
       id="path833" />
    <rect
       fill="#335eea"
       opacity="0.3"
       transform="rotate(-90,13,6)"
       x="12"
       width="2"
       height="12"
       rx="1"
       id="rect835"
       y="0"
       style="fill:#fdc947;fill-opacity:1" />
    <path
       d="M9.707 8.293a1 1 0 01-1.414 1.414l-3-3a1 1 0 010-1.414l3-3a1 1 0 011.414 1.414L7.414 6l2.293 2.293z"
       fill="#335EEA"
       id="path837"
       style="fill:#fdc947;fill-opacity:1" />
    <rect
       fill="#335EEA"
       opacity=".3"
       transform="matrix(0 -1 -1 0 29 29)"
       x="10"
       y="12"
       width="2"
       height="12"
       rx="1"
       id="rect839"
       style="fill:#fdc947;fill-opacity:1" />
    <path
       d="M14.293 20.293a1 1 0 001.414 1.414l3-3a1 1 0 000-1.414l-3-3a1 1 0 00-1.414 1.414L16.586 18l-2.293 2.293z"
       fill="#335EEA"
       id="path841"
       style="fill:#fdc947;fill-opacity:1" />
  </g>
</svg>
