<?xml version="1.0" encoding="UTF-8"?><svg xmlns="http://www.w3.org/2000/svg" viewBox="0 0 160.9243 185.06394"><defs><style>.d,.e{fill:#fdc945;}.f{fill:#1d1d1b;}.e,.g,.h{stroke:#1d1d1b;stroke-miterlimit:10;}.g{stroke-width:2px;}.g,.h{fill:none;}.h{stroke-width:4px;}</style></defs><g id="a"/><g id="b"><g id="c"><g><path class="d" d="M146.95434,42.4859H14.36108c-6.5835,0-11.97021,5.40002-11.97021,12v20.69257H158.92431v-20.69257c0-6.59998-5.38647-12-11.96997-12Zm-114.20898,23.69604c-5.01978,0-9.12671-4.10699-9.12671-9.12665s4.10693-9.12671,9.12671-9.12671,9.12671,4.10699,9.12671,9.12671-4.10706,9.12665-9.12671,9.12665Zm96.21533,0c-5.01953,0-9.12646-4.10699-9.12646-9.12665s4.10693-9.12671,9.12646-9.12671,9.12695,4.10699,9.12695,9.12671-4.10718,9.12665-9.12695,9.12665Z"/><rect class="g" x="23.61866" y="47.92859" width="18.25335" height="18.25335" rx="9.12666" ry="9.12666"/><rect class="g" x="119.83416" y="47.92859" width="18.25335" height="18.25335" rx="9.12666" ry="9.12666"/></g><rect class="h" x="2" y="42.48592" width="156.9243" height="140.57802" rx="12" ry="12"/><g><rect class="g" x="120.39296" y="89.13054" width="13.86498" height="13.86498"/><rect class="g" x="120.39296" y="146.77864" width="13.86498" height="13.86498"/><rect class="g" x="88.60814" y="89.13054" width="13.86498" height="13.86498"/><rect class="g" x="88.60814" y="117.95459" width="13.86498" height="13.86498"/><rect class="g" x="88.60814" y="146.77864" width="13.86498" height="13.86498"/><rect class="g" x="56.82332" y="89.13054" width="13.86498" height="13.86498"/><rect class="g" x="56.82332" y="117.95459" width="13.86498" height="13.86498"/><rect class="g" x="56.82332" y="146.77864" width="13.86498" height="13.86498"/><rect class="g" x="25.03851" y="89.13054" width="13.86498" height="13.86498"/><rect class="g" x="25.03851" y="117.95459" width="13.86498" height="13.86498"/><rect class="g" x="25.03851" y="146.77864" width="13.86498" height="13.86498"/></g><path class="e" d="M128.24308,110.34092c.5413,.075,1.08611,.13061,1.62332,.22814,3.57118,.64834,6.50352,2.38963,8.79237,5.20076,1.81704,2.23167,2.88846,4.79367,3.14434,7.65518,.41723,4.66586-1.05424,8.67863-4.40578,11.95549-2.25408,2.20385-4.98292,3.52229-8.11151,3.91949-4.24735,.53924-8.05355-.55681-11.34126-3.3122-2.5531-2.13972-4.19604-4.86684-4.84739-8.13107-.86525-4.33618,.02924-8.3153,2.72144-11.83897,2.16986-2.84,5.04621-4.60927,8.53585-5.36903,.58939-.12832,1.19719-.17184,1.79628-.2561,.09184-.01292,.1825-.03426,.27371-.0517,.60621,0,1.21242,0,1.81864,0Zm-11.12522,10.89236h20.43109c-1.36857-3.96263-5.28973-7.25124-10.21571-7.25088-4.91792,.00036-8.83988,3.27718-10.21538,7.25088Zm12.06027,14.34725c5.22624-.79491,9.18692-5.65044,9.03094-10.67877-.03577-.00182-.07232-.00633-.10869-.00515-2.25121,.07294-4.13058,.98181-5.69567,2.56679-1.49448,1.51348-2.41103,3.34397-2.89694,5.40296-.20899,.88559-.30744,1.78274-.32964,2.71417Zm-3.68172,.00157c-.00581-.1005-.00961-.17455-.01451-.24853-.00501-.07554-.01258-.15093-.0165-.22652-.13251-2.5555-.91868-4.87684-2.52767-6.88424-1.33268-1.66266-3.01171-2.79947-5.13805-3.19282-.4477-.08282-.90655-.10541-1.36556-.15634,.01038,5.74644,4.37959,10.01296,9.0623,10.70845Zm1.82945-8.8768c.99647,.00492,1.827-.82404,1.8256-1.82216-.00139-.98527-.81847-1.80178-1.80919-1.8079-.98733-.0061-1.80975,.80103-1.82522,1.7913-.0155,.99244,.8122,1.83384,1.80882,1.83877Z"/><path class="f" d="M48.31579,36.50903l-8.75195-10.89178c-.2384-.29675-.21155-.72638,.06213-.99097l7.65088-7.39764c.47607-.46033,.15015-1.26624-.51196-1.26624h-4.61694c-.19458,0-.3811,.07697-.51917,.21411l-5.60583,5.57037c-.4646,.46179-1.25586,.13263-1.25586-.52252V.73663c0-.40686-.32971-.73663-.73657-.73663h-3.5498c-.40686,0-.73669,.32977-.73669,.73663V58.09552c0,.40686,.32971,.73663,.73669,.73663h3.5498c.40686,0,.73657-.32977,.73657-.73663V29.64026c0-.19531,.07764-.38269,.21582-.52087,.3125-.31256,.82812-.28137,1.10083,.06659l6.45459,8.23877c.13965,.17822,.35352,.28235,.57983,.28235h4.62341c.61841,0,.96155-.716,.57422-1.19806Z"/><path class="f" d="M145.10464,36.50903l-8.75195-10.89178c-.2384-.29675-.21155-.72638,.06213-.99097l7.65088-7.39764c.47607-.46033,.15015-1.26624-.51196-1.26624h-4.61694c-.19458,0-.3811,.07697-.51917,.21411l-5.60583,5.57037c-.4646,.46179-1.25586,.13263-1.25586-.52252V.73663c0-.40686-.32971-.73663-.73657-.73663h-3.5498c-.40686,0-.73669,.32977-.73669,.73663V58.09552c0,.40686,.32971,.73663,.73669,.73663h3.5498c.40686,0,.73657-.32977,.73657-.73663V29.64026c0-.19531,.07764-.38269,.21582-.52087,.3125-.31256,.82812-.28137,1.10083,.06659l6.45459,8.23877c.13965,.17822,.35352,.28235,.57983,.28235h4.62341c.61841,0,.96155-.716,.57422-1.19806Z"/></g></g></svg>