<?xml version="1.0" encoding="UTF-8"?><svg xmlns="http://www.w3.org/2000/svg" xmlns:xlink="http://www.w3.org/1999/xlink" viewBox="0 0 249.11769 250.2506"><defs><style>.f,.g,.h,.i,.j,.k,.l,.m,.n{fill:none;}.g,.o,.i,.j,.k,.l,.m,.n{stroke:#1d1d1b;}.g,.o,.i,.j,.k,.l,.n{stroke-linecap:round;}.g,.o,.j,.n{stroke-linejoin:round;}.h{stroke:#000;}.h,.i,.k,.l,.m{stroke-miterlimit:10;}.h,.n{stroke-width:3px;}.p,.o{fill:#fdc945;}.q{fill:#1d1d1b;}.o,.j,.k,.m{stroke-width:2px;}.l{stroke-width:4px;}.r{opacity:.33;}.s{clip-path:url(#e);}.t{clip-path:url(#d);}</style><clipPath id="d"><rect class="f" x="117.14439" y="63.01944" width="92.24512" height="156.65472"/></clipPath><clipPath id="e"><path class="f" d="M107.82632,196.99993h-37.00644c-6.43703,0-7.76942,5.15702-7.76942,5.15702-15.43112-1.74686-43.00042-7.68603-43.00042-7.68603-4.71401-1.01014-7.40773-4.0144-8.94713-6.86738l55.20011-7.56024h41.16891l.35438,16.95662Z"/></clipPath></defs><g id="a"/><g id="b"><g id="c"><g class="t"><g><path class="p" d="M163.67292,82.31341l-21.06502,60.49146c-.23652,.67919-.97885,1.03806-1.65804,.80154l-5.92644-2.06377c-.67919-.23652-1.03806-.97885-.80154-1.65804l4.26148-12.23751c.11358-.32616,.09294-.68408-.05738-.99502h0c-.34011-.70355-1.21895-.95121-1.87637-.52878l-15.56565,10.00187c-.33672,.21636-.75423,.26586-1.13221,.13424l-7.7186-2.68786c-1.03242-.35952-1.18909-1.75433-.26215-2.33393l20.94331-13.09548c.57064-.35681,.77538-1.08966,.47231-1.69056l-8.4722-16.7981c-.52721-1.04532,.48533-2.20122,1.59096-1.81621l7.70769,2.68406c.32481,.11311,.59169,.35013,.74236,.65931l6.12022,12.55854c.50737,1.04112,2.01952,.95152,2.4004-.14223l11.91083-34.2038c.23652-.67919,.97885-1.03806,1.65804-.80154l5.92644,2.06377c.67919,.23652,1.03806,.97885,.80154,1.65804Z"/><path class="q" d="M202.91472,213.42436l8.44188,24.055c.78525,2.23756-1.36958,4.38836-3.60567,3.59893l-16.71745-5.90197c-.81865-.28902-1.45892-.93844-1.73629-1.76111l-4.70942-13.96802-9.37666-25.19211-8.11264-24.06191c-.54154-1.60621-2.36591-2.3771-3.89514-1.6459h0c-.67586,.32317-1.19567,.90158-1.44507,1.608l-9.35733,26.50482c-.51934,1.47104-2.13287,2.24255-3.60391,1.72321l-12.83588-4.53161c-1.47104-.51934-2.24255-2.13287-1.72321-3.60391L180.49235,59.23129c.51934-1.47104,2.13287-2.24255,3.60391-1.72321l12.83588,4.53161c1.47104,.51934,2.24255,2.13287,1.72321,3.60391l-26.15372,74.08088c-.83633,2.36892,1.60412,4.56907,3.87399,3.49255l27.38039-12.98564c.67409-.3197,1.44727-.35973,2.15077-.11137l16.69384,5.89364c2.39465,.84541,2.54427,4.17528,.2351,5.23205l-37.10792,16.9821c-1.32743,.60749-1.97328,2.12639-1.48987,3.50386l9.30013,26.50056,9.37666,25.19211Z"/></g></g><path class="h" d="M197.98716,33.9791c-22.90747-.01672-45.81494-.0069-68.72241-.00421-13.13477,.00159-20.23096,6.99847-20.23804,20.0163-.01562,29.07056-.00488,58.14105-.00439,87.21161,.00073,29.50012-.03052,59.00031,.01587,88.50043,.01855,11.68469,7.42285,19.02405,19.06519,19.03381,23.33691,.01953,46.67407,.01746,70.01099-.00293,11.98389-.0105,19.36377-7.27875,19.36768-19.15454,.02075-58.71387,.01831-117.42773,.00195-176.1416-.00342-12.22021-7.2688-19.44995-19.49683-19.45886Zm-47.38989,15.0238h25.31519c1.62915,0,2.96216,1.33301,2.96216,2.96222s-1.33301,2.96228-2.96216,2.96228h-25.31519c-1.62915,0-2.96216-1.33301-2.96216-2.96228s1.33301-2.96222,2.96216-2.96222Zm20.84961,192.74945h-16.38403c-4.08521,0-7.42773-3.34241-7.42773-7.42767s3.34253-7.42767,7.42773-7.42767h16.38403c4.08545,0,7.42773,3.34247,7.42773,7.42767s-3.34229,7.42767-7.42773,7.42767Zm37.94263-22.07819H117.14439V63.01944h92.24512V219.67417Z"/><g><path class="l" d="M212.82882,2c18.93722,0,34.28886,15.35165,34.28886,34.28886"/><path class="l" d="M217.17409,14.04445c9.98684,0,18.08277,8.09593,18.08277,18.08277"/><path class="l" d="M218.71301,27.0772c1.97983,0,3.58479,1.60497,3.58479,3.58479"/></g><g><g class="r"><g class="s"><g><g><polygon class="g" points="-.36478 182.27221 -7.21774 179.74011 -.45787 177.85826 6.38743 180.02706 -.36478 182.27221"/><polygon class="g" points="14.12662 182.27221 7.27365 179.74011 14.03352 177.85826 20.87882 180.02706 14.12662 182.27221"/><polygon class="g" points="28.61801 182.27221 21.76504 179.74011 28.52491 177.85826 35.37022 180.02706 28.61801 182.27221"/><polygon class="g" points="43.1094 182.27221 36.25643 179.74011 43.0163 177.85826 49.86161 180.02706 43.1094 182.27221"/><polygon class="g" points="57.60079 182.27221 50.74783 179.74011 57.5077 177.85826 64.353 180.02706 57.60079 182.27221"/><polygon class="g" points="72.09218 182.27221 65.23922 179.74011 71.99909 177.85826 78.84439 180.02706 72.09218 182.27221"/><polygon class="g" points="86.58358 182.27221 79.73061 179.74011 86.49048 177.85826 93.33578 180.02706 86.58358 182.27221"/><polygon class="g" points="101.07497 182.27221 94.222 179.74011 100.98187 177.85826 107.82718 180.02706 101.07497 182.27221"/><polygon class="g" points="-.36478 186.68617 -7.21774 184.15407 -.45787 182.27221 6.38743 184.44102 -.36478 186.68617"/><polygon class="g" points="14.12662 186.68617 7.27365 184.15407 14.03352 182.27221 20.87882 184.44102 14.12662 186.68617"/><polygon class="g" points="28.61801 186.68617 21.76504 184.15407 28.52491 182.27221 35.37022 184.44102 28.61801 186.68617"/><polygon class="g" points="43.1094 186.68617 36.25643 184.15407 43.0163 182.27221 49.86161 184.44102 43.1094 186.68617"/><polygon class="g" points="57.60079 186.68617 50.74783 184.15407 57.5077 182.27221 64.353 184.44102 57.60079 186.68617"/><polygon class="g" points="72.09218 186.68617 65.23922 184.15407 71.99909 182.27221 78.84439 184.44102 72.09218 186.68617"/><polygon class="g" points="86.58358 186.68617 79.73061 184.15407 86.49048 182.27221 93.33578 184.44102 86.58358 186.68617"/><polygon class="g" points="101.07497 186.68617 94.222 184.15407 100.98187 182.27221 107.82718 184.44102 101.07497 186.68617"/><polygon class="g" points="-.36478 191.10013 -7.21774 188.56803 -.45787 186.68617 6.38743 188.85497 -.36478 191.10013"/><polygon class="g" points="14.12662 191.10013 7.27365 188.56803 14.03352 186.68617 20.87882 188.85497 14.12662 191.10013"/><polygon class="g" points="28.61801 191.10013 21.76504 188.56803 28.52491 186.68617 35.37022 188.85497 28.61801 191.10013"/><polygon class="g" points="43.1094 191.10013 36.25643 188.56803 43.0163 186.68617 49.86161 188.85497 43.1094 191.10013"/><polygon class="g" points="57.60079 191.10013 50.74783 188.56803 57.5077 186.68617 64.353 188.85497 57.60079 191.10013"/><polygon class="g" points="72.09218 191.10013 65.23922 188.56803 71.99909 186.68617 78.84439 188.85497 72.09218 191.10013"/><polygon class="g" points="86.58358 191.10013 79.73061 188.56803 86.49048 186.68617 93.33578 188.85497 86.58358 191.10013"/><polygon class="g" points="101.07497 191.10013 94.222 188.56803 100.98187 186.68617 107.82718 188.85497 101.07497 191.10013"/><polygon class="g" points="-.36478 195.51409 -7.21774 192.98198 -.45787 191.10013 6.38743 193.26893 -.36478 195.51409"/><polygon class="g" points="14.12662 195.51409 7.27365 192.98198 14.03352 191.10013 20.87882 193.26893 14.12662 195.51409"/><polygon class="g" points="28.61801 195.51409 21.76504 192.98198 28.52491 191.10013 35.37022 193.26893 28.61801 195.51409"/><polygon class="g" points="43.1094 195.51409 36.25643 192.98198 43.0163 191.10013 49.86161 193.26893 43.1094 195.51409"/><polygon class="g" points="57.60079 195.51409 50.74783 192.98198 57.5077 191.10013 64.353 193.26893 57.60079 195.51409"/><polygon class="g" points="72.09218 195.51409 65.23922 192.98198 71.99909 191.10013 78.84439 193.26893 72.09218 195.51409"/><polygon class="g" points="86.58358 195.51409 79.73061 192.98198 86.49048 191.10013 93.33578 193.26893 86.58358 195.51409"/><polygon class="g" points="101.07497 195.51409 94.222 192.98198 100.98187 191.10013 107.82718 193.26893 101.07497 195.51409"/><polygon class="g" points="-.36478 199.92804 -7.21774 197.39594 -.45787 195.51409 6.38743 197.68289 -.36478 199.92804"/><polygon class="g" points="14.12662 199.92804 7.27365 197.39594 14.03352 195.51409 20.87882 197.68289 14.12662 199.92804"/><polygon class="g" points="28.61801 199.92804 21.76504 197.39594 28.52491 195.51409 35.37022 197.68289 28.61801 199.92804"/><polygon class="g" points="43.1094 199.92804 36.25643 197.39594 43.0163 195.51409 49.86161 197.68289 43.1094 199.92804"/><polygon class="g" points="57.60079 199.92804 50.74783 197.39594 57.5077 195.51409 64.353 197.68289 57.60079 199.92804"/><polygon class="g" points="72.09218 199.92804 65.23922 197.39594 71.99909 195.51409 78.84439 197.68289 72.09218 199.92804"/><polygon class="g" points="86.58358 199.92804 79.73061 197.39594 86.49048 195.51409 93.33578 197.68289 86.58358 199.92804"/><polygon class="g" points="101.07497 199.92804 94.222 197.39594 100.98187 195.51409 107.82718 197.68289 101.07497 199.92804"/><polygon class="g" points="-.36478 204.342 -7.21774 201.8099 -.45787 199.92804 6.38743 202.09685 -.36478 204.342"/><polygon class="g" points="14.12662 204.342 7.27365 201.8099 14.03352 199.92804 20.87882 202.09685 14.12662 204.342"/><polygon class="g" points="28.61801 204.342 21.76504 201.8099 28.52491 199.92804 35.37022 202.09685 28.61801 204.342"/><polygon class="g" points="43.1094 204.342 36.25643 201.8099 43.0163 199.92804 49.86161 202.09685 43.1094 204.342"/><polygon class="g" points="57.60079 204.342 50.74783 201.8099 57.5077 199.92804 64.353 202.09685 57.60079 204.342"/><polygon class="g" points="72.09218 204.342 65.23922 201.8099 71.99909 199.92804 78.84439 202.09685 72.09218 204.342"/><polygon class="g" points="86.58358 204.342 79.73061 201.8099 86.49048 199.92804 93.33578 202.09685 86.58358 204.342"/><polygon class="g" points="101.07497 204.342 94.222 201.8099 100.98187 199.92804 107.82718 202.09685 101.07497 204.342"/></g><g><polygon class="g" points="114.52052 182.27221 107.66756 179.74011 114.42743 177.85826 121.27273 180.02706 114.52052 182.27221"/><polygon class="g" points="129.01191 182.27221 122.15895 179.74011 128.91882 177.85826 135.76412 180.02706 129.01191 182.27221"/><polygon class="g" points="143.50331 182.27221 136.65034 179.74011 143.41021 177.85826 150.25552 180.02706 143.50331 182.27221"/><polygon class="g" points="157.9947 182.27221 151.14173 179.74011 157.9016 177.85826 164.74691 180.02706 157.9947 182.27221"/><polygon class="g" points="172.48609 182.27221 165.63313 179.74011 172.393 177.85826 179.2383 180.02706 172.48609 182.27221"/><polygon class="g" points="186.97748 182.27221 180.12452 179.74011 186.88439 177.85826 193.72969 180.02706 186.97748 182.27221"/><polygon class="g" points="201.46888 182.27221 194.61591 179.74011 201.37578 177.85826 208.22108 180.02706 201.46888 182.27221"/><polygon class="g" points="215.96027 182.27221 209.1073 179.74011 215.86717 177.85826 222.71248 180.02706 215.96027 182.27221"/><polygon class="g" points="114.52052 186.68617 107.66756 184.15407 114.42743 182.27221 121.27273 184.44102 114.52052 186.68617"/><polygon class="g" points="129.01191 186.68617 122.15895 184.15407 128.91882 182.27221 135.76412 184.44102 129.01191 186.68617"/><polygon class="g" points="143.50331 186.68617 136.65034 184.15407 143.41021 182.27221 150.25552 184.44102 143.50331 186.68617"/><polygon class="g" points="157.9947 186.68617 151.14173 184.15407 157.9016 182.27221 164.74691 184.44102 157.9947 186.68617"/><polygon class="g" points="172.48609 186.68617 165.63313 184.15407 172.393 182.27221 179.2383 184.44102 172.48609 186.68617"/><polygon class="g" points="186.97748 186.68617 180.12452 184.15407 186.88439 182.27221 193.72969 184.44102 186.97748 186.68617"/><polygon class="g" points="201.46888 186.68617 194.61591 184.15407 201.37578 182.27221 208.22108 184.44102 201.46888 186.68617"/><polygon class="g" points="215.96027 186.68617 209.1073 184.15407 215.86717 182.27221 222.71248 184.44102 215.96027 186.68617"/><polygon class="g" points="114.52052 191.10013 107.66756 188.56803 114.42743 186.68617 121.27273 188.85497 114.52052 191.10013"/><polygon class="g" points="129.01191 191.10013 122.15895 188.56803 128.91882 186.68617 135.76412 188.85497 129.01191 191.10013"/><polygon class="g" points="143.50331 191.10013 136.65034 188.56803 143.41021 186.68617 150.25552 188.85497 143.50331 191.10013"/><polygon class="g" points="157.9947 191.10013 151.14173 188.56803 157.9016 186.68617 164.74691 188.85497 157.9947 191.10013"/><polygon class="g" points="172.48609 191.10013 165.63313 188.56803 172.393 186.68617 179.2383 188.85497 172.48609 191.10013"/><polygon class="g" points="186.97748 191.10013 180.12452 188.56803 186.88439 186.68617 193.72969 188.85497 186.97748 191.10013"/><polygon class="g" points="201.46888 191.10013 194.61591 188.56803 201.37578 186.68617 208.22108 188.85497 201.46888 191.10013"/><polygon class="g" points="215.96027 191.10013 209.1073 188.56803 215.86717 186.68617 222.71248 188.85497 215.96027 191.10013"/><polygon class="g" points="114.52052 195.51409 107.66756 192.98198 114.42743 191.10013 121.27273 193.26893 114.52052 195.51409"/><polygon class="g" points="129.01191 195.51409 122.15895 192.98198 128.91882 191.10013 135.76412 193.26893 129.01191 195.51409"/><polygon class="g" points="143.50331 195.51409 136.65034 192.98198 143.41021 191.10013 150.25552 193.26893 143.50331 195.51409"/><polygon class="g" points="157.9947 195.51409 151.14173 192.98198 157.9016 191.10013 164.74691 193.26893 157.9947 195.51409"/><polygon class="g" points="172.48609 195.51409 165.63313 192.98198 172.393 191.10013 179.2383 193.26893 172.48609 195.51409"/><polygon class="g" points="186.97748 195.51409 180.12452 192.98198 186.88439 191.10013 193.72969 193.26893 186.97748 195.51409"/><polygon class="g" points="201.46888 195.51409 194.61591 192.98198 201.37578 191.10013 208.22108 193.26893 201.46888 195.51409"/><polygon class="g" points="215.96027 195.51409 209.1073 192.98198 215.86717 191.10013 222.71248 193.26893 215.96027 195.51409"/><polygon class="g" points="114.52052 199.92804 107.66756 197.39594 114.42743 195.51409 121.27273 197.68289 114.52052 199.92804"/><polygon class="g" points="129.01191 199.92804 122.15895 197.39594 128.91882 195.51409 135.76412 197.68289 129.01191 199.92804"/><polygon class="g" points="143.50331 199.92804 136.65034 197.39594 143.41021 195.51409 150.25552 197.68289 143.50331 199.92804"/><polygon class="g" points="157.9947 199.92804 151.14173 197.39594 157.9016 195.51409 164.74691 197.68289 157.9947 199.92804"/><polygon class="g" points="172.48609 199.92804 165.63313 197.39594 172.393 195.51409 179.2383 197.68289 172.48609 199.92804"/><polygon class="g" points="186.97748 199.92804 180.12452 197.39594 186.88439 195.51409 193.72969 197.68289 186.97748 199.92804"/><polygon class="g" points="201.46888 199.92804 194.61591 197.39594 201.37578 195.51409 208.22108 197.68289 201.46888 199.92804"/><polygon class="g" points="215.96027 199.92804 209.1073 197.39594 215.86717 195.51409 222.71248 197.68289 215.96027 199.92804"/><polygon class="g" points="114.52052 204.342 107.66756 201.8099 114.42743 199.92804 121.27273 202.09685 114.52052 204.342"/><polygon class="g" points="129.01191 204.342 122.15895 201.8099 128.91882 199.92804 135.76412 202.09685 129.01191 204.342"/><polygon class="g" points="143.50331 204.342 136.65034 201.8099 143.41021 199.92804 150.25552 202.09685 143.50331 204.342"/><polygon class="g" points="157.9947 204.342 151.14173 201.8099 157.9016 199.92804 164.74691 202.09685 157.9947 204.342"/><polygon class="g" points="172.48609 204.342 165.63313 201.8099 172.393 199.92804 179.2383 202.09685 172.48609 204.342"/><polygon class="g" points="186.97748 204.342 180.12452 201.8099 186.88439 199.92804 193.72969 202.09685 186.97748 204.342"/><polygon class="g" points="201.46888 204.342 194.61591 201.8099 201.37578 199.92804 208.22108 202.09685 201.46888 204.342"/><polygon class="g" points="215.96027 204.342 209.1073 201.8099 215.86717 199.92804 222.71248 202.09685 215.96027 204.342"/></g></g></g></g><path class="j" d="M27.59389,116.84807h-6.97333v-7.33664c0-4.54178-12.24853-4.27973-16.62911,0-4.38082,4.27973-3.57613,12.05311,0,12.05311H25.80583s-4.2714,3.3132-6.59834,4.77054c-9.21974,5.77446-10.38838,23.9647-10.38838,29.2052v24.13288s-.00564,12.0264,10.99935,14.38464c0,0,27.56953,5.93918,43.00042,7.68603,0,0,2.81971-4.64914,6.57177-4.64914,1.87722,0,20.25009-.02372,38.43568-.04743"/><path class="n" d="M15.73946,193.84351v14.86017c0,3.14429,2.0145,3.93036,4.38733,3.93036h16.2601c2.88226,0,4.97114-2.35821,4.97114-4.45441v-8.29742"/><path class="j" d="M107.48694,81.59954H58.20985c-9.39414,0-17.68784,4.72751-20.44165,11.65199l-9.40635,23.65235"/><polyline class="j" points="11.07529 187.35947 66.7932 179.68823 107.48678 179.68823 107.74737 179.68823"/><path class="j" d="M107.48689,88.28093H59.27119c-6.97543,0-13.24071,4.26748-15.79495,10.75843l-7.02983,17.86452H107.19284"/><path class="j" d="M19.03804,133.50077l3.53386-1.30195s29.20082,6.69573,40.73235,7.06771v3.34786s-13.94943,2.23191-18.04127,2.23191-13.57745-.74397-16.55333-2.04592-9.67161-9.29962-9.67161-9.29962Z"/><path class="k" d="M26.48405,127.84551s32.19637,9.4701,81.00285,9.71062"/><path class="k" d="M66.37129,140.3833c12.01395,1.13706,26.42051,1.98728,42.6414,1.98728"/><path class="i" d="M66.37129,143.85267c12.01395,1.13706,26.42051,1.98728,42.6414,1.98728"/><path class="k" d="M107.87076,164.96658H63.30424c-21.46491,0-34.94239-13.10119-34.94239-13.10119"/><path class="o" d="M28.31387,162.49594l-7.69266-.38494c-3.64695-.18249-6.67233,2.78836-6.55618,6.43803l.36891,11.59176,8.07764-5.26089c1.9292-1.25647,3.4632-3.03353,4.42448-5.12554l2.49133-5.42184c.3831-.83373-.19712-1.79073-1.11351-1.83658Z"/><path class="j" d="M65.24832,80.63755c0-1.3154,1.43773-2.39163,3.19496-2.39163h8.0214c1.75723,0,3.19496,1.07623,3.19496,2.39163"/><g><rect class="q" x="16.16061" y="165.29411" width="7.798" height="2.82795" rx="1.41397" ry="1.41397"/><rect class="q" x="16.16061" y="168.62149" width="5.94316" height="2.82795" rx="1.41397" ry="1.41397"/><rect class="q" x="16.16061" y="172.0278" width="4.27134" height="2.82795" rx="1.41397" ry="1.41397"/></g><path class="p" d="M23.45556,134.85504s21.27878,5.52826,34.19411,6.5219c0,0-24.49923,5.00715-34.19411-6.5219Z"/><g><g><path class="q" d="M30.71102,198.97703l-1.75903-1.44084c-.22178-.18166-.58472-.18166-.80639,0l-1.75915,1.44084c-.22178,.18165-.22178,.47891,0,.66057,.22178,.18165,.58472,.18165,.8065,0l1.35579-1.11058,1.3559,1.11058c.22167,.18165,.5846,.18165,.80639,0,.22178-.18166,.22178-.47892,0-.66057Z"/><path class="q" d="M30.71102,201.35093l-1.75903-1.44084c-.22178-.18166-.58472-.18166-.80639,0l-1.75915,1.44084c-.22178,.18165-.22178,.47891,0,.66057,.22178,.18165,.58472,.18165,.8065,0l1.35579-1.11058,1.3559,1.11058c.22167,.18165,.5846,.18165,.80639,0,.22178-.18166,.22178-.47892,0-.66057Z"/><path class="q" d="M30.71102,203.72483l-1.75903-1.44084c-.22178-.18166-.58472-.18166-.80639,0l-1.75915,1.44084c-.22178,.18165-.22178,.47891,0,.66057,.22178,.18165,.58472,.18165,.8065,0l1.35579-1.11058,1.3559,1.11058c.22167,.18165,.5846,.18165,.80639,0,.22178-.18166,.22178-.47892,0-.66057Z"/><path class="q" d="M30.71102,206.09873l-1.75903-1.44084c-.22178-.18166-.58472-.18166-.80639,0l-1.75915,1.44084c-.22178,.18165-.22178,.47891,0,.66057,.22178,.18165,.58472,.18165,.8065,0l1.35579-1.11058,1.3559,1.11058c.22167,.18165,.5846,.18165,.80639,0,.22178-.18166,.22178-.47892,0-.66057Z"/><path class="q" d="M30.71102,208.47263l-1.75903-1.44084c-.22178-.18166-.58472-.18166-.80639,0l-1.75915,1.44084c-.22178,.18165-.22178,.47891,0,.66057,.22178,.18165,.58472,.18165,.8065,0l1.35579-1.11058,1.3559,1.11058c.22167,.18165,.5846,.18165,.80639,0,.22178-.18166,.22178-.47892,0-.66057Z"/></g><g><path class="q" d="M19.96176,207.69234l1.75903,1.44084c.22178,.18166,.58472,.18166,.80639,0l1.75915-1.44084c.22178-.18165,.22178-.47891,0-.66057-.22178-.18165-.58472-.18165-.8065,0l-1.35579,1.11058-1.3559-1.11058c-.22167-.18165-.5846-.18165-.80639,0-.22178,.18166-.22178,.47892,0,.66057Z"/><path class="q" d="M19.96176,205.31845l1.75903,1.44084c.22178,.18166,.58472,.18166,.80639,0l1.75915-1.44084c.22178-.18165,.22178-.47891,0-.66057-.22178-.18165-.58472-.18165-.8065,0l-1.35579,1.11058-1.3559-1.11058c-.22167-.18165-.5846-.18165-.80639,0-.22178,.18166-.22178,.47892,0,.66057Z"/><path class="q" d="M19.96176,202.94455l1.75903,1.44084c.22178,.18166,.58472,.18166,.80639,0l1.75915-1.44084c.22178-.18165,.22178-.47891,0-.66057-.22178-.18165-.58472-.18165-.8065,0l-1.35579,1.11058-1.3559-1.11058c-.22167-.18165-.5846-.18165-.80639,0-.22178,.18166-.22178,.47892,0,.66057Z"/><path class="q" d="M19.96176,200.57065l1.75903,1.44084c.22178,.18166,.58472,.18166,.80639,0l1.75915-1.44084c.22178-.18165,.22178-.47891,0-.66057-.22178-.18165-.58472-.18165-.8065,0l-1.35579,1.11058-1.3559-1.11058c-.22167-.18165-.5846-.18165-.80639,0-.22178,.18166-.22178,.47892,0,.66057Z"/><path class="q" d="M19.96176,198.19675l1.75903,1.44084c.22178,.18166,.58472,.18166,.80639,0l1.75915-1.44084c.22178-.18165,.22178-.47891,0-.66057-.22178-.18165-.58472-.18165-.8065,0l-1.35579,1.11058-1.3559-1.11058c-.22167-.18165-.5846-.18165-.80639,0-.22178,.18166-.22178,.47892,0,.66057Z"/></g><g><path class="q" d="M32.81115,207.69234l1.75903,1.44084c.22178,.18166,.58472,.18166,.80639,0l1.75915-1.44084c.22178-.18165,.22178-.47891,0-.66057-.22178-.18165-.58472-.18165-.8065,0l-1.35579,1.11058-1.3559-1.11058c-.22167-.18165-.5846-.18165-.80639,0-.22178,.18166-.22178,.47892,0,.66057Z"/><path class="q" d="M32.81115,205.31845l1.75903,1.44084c.22178,.18166,.58472,.18166,.80639,0l1.75915-1.44084c.22178-.18165,.22178-.47891,0-.66057-.22178-.18165-.58472-.18165-.8065,0l-1.35579,1.11058-1.3559-1.11058c-.22167-.18165-.5846-.18165-.80639,0-.22178,.18166-.22178,.47892,0,.66057Z"/><path class="q" d="M32.81115,202.94455l1.75903,1.44084c.22178,.18166,.58472,.18166,.80639,0l1.75915-1.44084c.22178-.18165,.22178-.47891,0-.66057-.22178-.18165-.58472-.18165-.8065,0l-1.35579,1.11058-1.3559-1.11058c-.22167-.18165-.5846-.18165-.80639,0-.22178,.18166-.22178,.47892,0,.66057Z"/><path class="q" d="M32.81115,200.57065l1.75903,1.44084c.22178,.18166,.58472,.18166,.80639,0l1.75915-1.44084c.22178-.18165,.22178-.47891,0-.66057-.22178-.18165-.58472-.18165-.8065,0l-1.35579,1.11058-1.3559-1.11058c-.22167-.18165-.5846-.18165-.80639,0-.22178,.18166-.22178,.47892,0,.66057Z"/><path class="q" d="M32.81115,198.19675l1.75903,1.44084c.22178,.18166,.58472,.18166,.80639,0l1.75915-1.44084c.22178-.18165,.22178-.47891,0-.66057-.22178-.18165-.58472-.18165-.8065,0l-1.35579,1.11058-1.3559-1.11058c-.22167-.18165-.5846-.18165-.80639,0-.22178,.18166-.22178,.47892,0,.66057Z"/></g></g><line class="m" x1="62.81887" y1="201.74383" x2="107.82633" y2="201.74383"/></g></g></g></svg>