<?xml version="1.0" encoding="UTF-8" standalone="no"?>
<svg
   xmlns:dc="http://purl.org/dc/elements/1.1/"
   xmlns:cc="http://creativecommons.org/ns#"
   xmlns:rdf="http://www.w3.org/1999/02/22-rdf-syntax-ns#"
   xmlns:svg="http://www.w3.org/2000/svg"
   xmlns="http://www.w3.org/2000/svg"
   xmlns:sodipodi="http://sodipodi.sourceforge.net/DTD/sodipodi-0.dtd"
   xmlns:inkscape="http://www.inkscape.org/namespaces/inkscape"
   width="24"
   height="24"
   viewBox="0 0 24 24"
   version="1.1"
   id="svg841"
   sodipodi:docname="Group-chat.svg"
   inkscape:export-filename="/Users/maelleconvoicar/chat.png"
   inkscape:export-xdpi="96"
   inkscape:export-ydpi="96"
   inkscape:version="1.0.1 (c497b03c, 2020-09-10)">
  <sodipodi:namedview
     pagecolor="#ffffff"
     bordercolor="#666666"
     borderopacity="1"
     objecttolerance="10"
     gridtolerance="10"
     guidetolerance="10"
     inkscape:pageopacity="0"
     inkscape:pageshadow="2"
     inkscape:window-width="1440"
     inkscape:window-height="900"
     id="namedview840"
     showgrid="false"
     inkscape:zoom="22.5"
     inkscape:cx="12"
     inkscape:cy="12"
     inkscape:window-x="0"
     inkscape:window-y="0"
     inkscape:window-maximized="0"
     inkscape:current-layer="svg841" />
  <metadata
     id="metadata847">
    <rdf:RDF>
      <cc:Work
         rdf:about="">
        <dc:format>image/svg+xml</dc:format>
        <dc:type
           rdf:resource="http://purl.org/dc/dcmitype/StillImage" />
        <dc:title />
      </cc:Work>
    </rdf:RDF>
  </metadata>
  <defs
     id="defs845" />
  <g
     fill="none"
     fill-rule="evenodd"
     id="g839">
    <path
       d="M0 0h24v24H0z"
       id="path833" />
    <path
       d="M16 15.632V12a3 3 0 00-3-3H6.162V5.526A2.526 2.526 0 018.688 3h11.79a2.526 2.526 0 012.526 2.526v7.58l.017 4.68a.5.5 0 01-.854.356l-2.51-2.51H16z"
       fill="#335EEA"
       id="path835"
       style="fill:#fdc947;fill-opacity:1" />
    <path
       d="M1.985 18v-5a2 2 0 012-2h8a2 2 0 012 2v5a2 2 0 01-2 2H4.101l-1.244 1.19a.5.5 0 01-.846-.36v-2.506A2.014 2.014 0 011.985 18zM6.5 14a.5.5 0 100 1h5a.5.5 0 100-1h-5zm3 2a.5.5 0 100 1h2a.5.5 0 100-1h-2z"
       fill="#335EEA"
       opacity=".3"
       id="path837"
       style="fill:#fdc947;fill-opacity:1" />
  </g>
</svg>
