<?xml version="1.0" encoding="UTF-8" standalone="no"?>
<svg
   xmlns:dc="http://purl.org/dc/elements/1.1/"
   xmlns:cc="http://creativecommons.org/ns#"
   xmlns:rdf="http://www.w3.org/1999/02/22-rdf-syntax-ns#"
   xmlns:svg="http://www.w3.org/2000/svg"
   xmlns="http://www.w3.org/2000/svg"
   xmlns:sodipodi="http://sodipodi.sourceforge.net/DTD/sodipodi-0.dtd"
   xmlns:inkscape="http://www.inkscape.org/namespaces/inkscape"
   width="24"
   height="24"
   viewBox="0 0 24 24"
   version="1.1"
   id="svg841"
   sodipodi:docname="Group.svg"
   inkscape:export-filename="/Users/maelleconvoicar/Desktop/group.png"
   inkscape:export-xdpi="96"
   inkscape:export-ydpi="96"
   inkscape:version="1.0.1 (c497b03c, 2020-09-10)">
  <sodipodi:namedview
     pagecolor="#ffffff"
     bordercolor="#666666"
     borderopacity="1"
     objecttolerance="10"
     gridtolerance="10"
     guidetolerance="10"
     inkscape:pageopacity="0"
     inkscape:pageshadow="2"
     inkscape:window-width="804"
     inkscape:window-height="486"
     id="namedview840"
     showgrid="false"
     inkscape:zoom="22.5"
     inkscape:cx="12"
     inkscape:cy="12"
     inkscape:window-x="0"
     inkscape:window-y="25"
     inkscape:window-maximized="0"
     inkscape:current-layer="svg841" />
  <metadata
     id="metadata847">
    <rdf:RDF>
      <cc:Work
         rdf:about="">
        <dc:format>image/svg+xml</dc:format>
        <dc:type
           rdf:resource="http://purl.org/dc/dcmitype/StillImage" />
        <dc:title />
      </cc:Work>
    </rdf:RDF>
  </metadata>
  <defs
     id="defs845" />
  <g
     fill="none"
     fill-rule="evenodd"
     id="g839">
    <path
       d="M0 0h24v24H0z"
       id="path833" />
    <path
       d="M18 14a3 3 0 110-6 3 3 0 010 6zm-9-3a4 4 0 110-8 4 4 0 010 8z"
       fill="#335EEA"
       opacity=".3"
       id="path835"
       style="fill:#fdc947;fill-opacity:1" />
    <path
       d="M17.601 15c3.407.038 6.188 1.76 6.397 5.4.009.147 0 .6-.542.6H19.6c0-2.25-.744-4.328-1.999-6zm-17.6 5.2C.388 15.426 4.26 13 8.983 13c4.788 0 8.722 2.293 9.015 7.2.012.195 0 .8-.751.8H.727c-.25 0-.747-.54-.726-.8z"
       fill="#335EEA"
       id="path837"
       style="fill:#fdc947;fill-opacity:1" />
  </g>
</svg>
