<?xml version="1.0" encoding="UTF-8" standalone="no"?>
<svg
   xmlns:dc="http://purl.org/dc/elements/1.1/"
   xmlns:cc="http://creativecommons.org/ns#"
   xmlns:rdf="http://www.w3.org/1999/02/22-rdf-syntax-ns#"
   xmlns:svg="http://www.w3.org/2000/svg"
   xmlns="http://www.w3.org/2000/svg"
   width="24"
   height="24"
   viewBox="0 0 24 24"
   version="1.1"
   id="svg841">
  <metadata
     id="metadata847">
    <rdf:RDF>
      <cc:Work
         rdf:about="">
        <dc:format>image/svg+xml</dc:format>
        <dc:type
           rdf:resource="http://purl.org/dc/dcmitype/StillImage" />
        <dc:title></dc:title>
      </cc:Work>
    </rdf:RDF>
  </metadata>
  <defs
     id="defs845" />
  <g
     fill="none"
     fill-rule="evenodd"
     id="g839">
    <path
       d="M0 0h24v24H0z"
       id="path833" />
    <path
       d="M8 7a1 1 0 110-2h8a4 4 0 110 8H8a2 2 0 100 4h9a1 1 0 010 2H8a4 4 0 110-8h8a2 2 0 100-4H8z"
       fill="#335EEA"
       opacity=".3"
       id="path835"
       style="fill:#fdc947;fill-opacity:1" />
    <path
       d="M9.707 8.293a1 1 0 01-1.414 1.414l-3-3a1 1 0 010-1.414l3-3a1 1 0 011.414 1.414L7.414 6l2.293 2.293zM14.293 20.293a1 1 0 001.414 1.414l3-3a1 1 0 000-1.414l-3-3a1 1 0 00-1.414 1.414L16.586 18l-2.293 2.293z"
       fill="#335EEA"
       id="path837"
       style="fill:#fdc947;fill-opacity:1" />
  </g>
</svg>
