<?xml version="1.0" standalone="no"?>
<!DOCTYPE svg PUBLIC "-//W3C//DTD SVG 20010904//EN"
 "http://www.w3.org/TR/2001/REC-SVG-20010904/DTD/svg10.dtd">
<svg version="1.0" xmlns="http://www.w3.org/2000/svg"
 width="592.000000pt" height="591.000000pt" viewBox="0 0 592.000000 591.000000"
 preserveAspectRatio="xMidYMid meet">

<g transform="translate(0.000000,591.000000) scale(0.100000,-0.100000)"
fill="#000000" stroke="none">
<path d="M1723 4579 c-36 -14 -67 -36 -98 -71 -68 -76 -88 -163 -59 -264 5
-18 -3 -27 -49 -53 -124 -71 -225 -194 -274 -336 l-28 -80 -3 -722 c-3 -802
-3 -802 62 -937 45 -93 141 -198 230 -250 65 -38 67 -40 59 -70 -33 -127 28
-265 143 -322 55 -27 183 -27 239 1 22 10 106 84 186 162 l146 143 853 0 854
0 150 -148 c166 -164 197 -182 305 -182 147 0 269 130 264 281 -2 71 -36 138
-108 209 l-64 63 24 31 c41 54 86 162 100 243 18 98 21 1368 4 1472 -14 86
-42 164 -85 234 l-35 57 62 68 c77 83 101 136 102 216 1 162 -134 288 -293
273 -31 -2 -74 -14 -96 -25 -21 -11 -102 -84 -179 -161 l-140 -141 -864 0
-865 0 -150 148 c-125 123 -159 152 -200 165 -65 22 -129 21 -193 -4z m207
-50 c19 -10 294 -277 610 -593 316 -317 582 -576 590 -576 8 0 274 259 590
576 316 316 591 583 610 593 78 40 168 32 240 -20 80 -58 113 -185 71 -274
-13 -27 -206 -227 -595 -615 -375 -374 -576 -582 -576 -595 0 -13 205 -225
583 -605 622 -623 607 -606 607 -701 0 -131 -118 -239 -246 -226 -28 3 -67 13
-85 22 -19 10 -295 278 -614 596 -319 318 -585 579 -590 579 -5 0 -275 -265
-600 -588 -625 -624 -612 -612 -702 -612 -80 0 -168 58 -204 135 -23 49 -24
133 -4 183 11 26 196 217 603 625 l587 587 -582 583 c-387 387 -588 596 -602
624 -25 49 -28 137 -8 186 52 124 198 177 317 116z m1612 -711 l-412 -413
-412 413 -413 412 825 0 825 0 -413 -412z m-1907 315 l43 -48 -38 -42 c-20
-23 -51 -71 -68 -105 -51 -104 -62 -167 -62 -347 l0 -161 -126 0 -126 0 4 183
c3 158 7 190 26 242 29 79 102 185 160 233 40 33 130 92 140 92 2 0 23 -21 47
-47z m595 -598 l515 -515 -518 -518 -518 -517 -29 35 c-43 51 -96 156 -114
226 -11 44 -16 108 -16 217 l0 155 193 4 c174 3 196 5 232 25 54 29 99 78 127
138 21 47 23 63 23 240 0 188 0 191 -28 247 -30 61 -64 95 -131 131 -37 20
-58 22 -228 25 l-188 4 0 151 c0 173 14 249 61 337 30 57 85 130 97 130 4 0
239 -232 522 -515z m2309 424 c18 -27 43 -83 56 -124 l25 -74 0 -733 c0 -611
-3 -742 -15 -788 -16 -61 -70 -174 -92 -192 -12 -9 -104 78 -504 478 -269 269
-489 493 -489 499 0 11 971 985 982 985 3 0 20 -23 37 -51z m-2579 -599 c61
-34 106 -97 120 -166 8 -35 11 -115 8 -208 -4 -168 -14 -200 -80 -263 -64 -62
-74 -63 -433 -63 l-325 0 0 366 0 365 333 -3 332 -3 45 -25z m1575 -1130 l410
-410 -820 0 -820 0 410 410 c225 226 410 410 410 410 0 0 185 -184 410 -410z
m-2025 228 c1 -224 21 -302 115 -432 l53 -74 -43 -42 -43 -42 -54 28 c-71 38
-175 145 -215 220 -52 98 -63 158 -63 341 l0 163 125 0 125 0 0 -162z"/>
<path d="M1786 3160 c-119 -36 -136 -204 -26 -260 46 -24 78 -25 124 -6 129
54 101 244 -39 269 -16 3 -43 2 -59 -3z m107 -65 c34 -34 40 -67 23 -110 -29
-69 -130 -81 -170 -20 -63 96 66 210 147 130z"/>
</g>
</svg>
