<?xml version="1.0" standalone="no"?>
<!DOCTYPE svg PUBLIC "-//W3C//DTD SVG 20010904//EN"
 "http://www.w3.org/TR/2001/REC-SVG-20010904/DTD/svg10.dtd">
<svg version="1.0" xmlns="http://www.w3.org/2000/svg"
 width="592.000000pt" height="592.000000pt" viewBox="0 0 592.000000 592.000000"
 preserveAspectRatio="xMidYMid meet">

<g transform="translate(0.000000,592.000000) scale(0.100000,-0.100000)"
fill="#000000" stroke="none">
<path d="M1827 4443 c-439 -138 -801 -254 -804 -257 -4 -4 158 -639 193 -758
3 -10 11 -18 18 -18 31 0 535 -171 546 -185 11 -13 13 -225 11 -1106 l-3
-1089 1232 0 1232 0 -3 1089 c-2 881 0 1093 11 1106 11 14 515 185 546 185 7
0 15 8 18 18 35 118 197 754 193 758 -3 3 -365 119 -805 258 l-799 252 -6 -71
c-8 -101 -39 -175 -102 -243 -159 -172 -411 -172 -570 0 -62 67 -93 140 -103
243 l-7 70 -798 -252z m729 110 c38 -182 170 -322 347 -369 66 -18 167 -18
234 0 165 44 306 187 342 345 5 24 11 45 14 48 6 5 1408 -435 1420 -446 4 -4
-30 -151 -76 -327 l-84 -319 -34 -12 c-19 -6 -133 -44 -254 -83 -121 -39 -231
-78 -243 -86 -13 -9 -32 -34 -43 -57 -18 -40 -19 -83 -19 -1089 l0 -1048
-1140 0 -1140 0 0 1048 c0 1006 -1 1049 -19 1089 -11 23 -30 48 -43 57 -12 8
-122 47 -243 86 -121 39 -235 77 -254 83 l-34 12 -84 319 c-46 176 -80 323
-76 327 8 8 1389 447 1410 448 7 1 15 -11 19 -26z"/>
</g>
</svg>
