<?xml version="1.0" standalone="no"?>
<!DOCTYPE svg PUBLIC "-//W3C//DTD SVG 20010904//EN"
 "http://www.w3.org/TR/2001/REC-SVG-20010904/DTD/svg10.dtd">
<svg version="1.0" xmlns="http://www.w3.org/2000/svg"
 width="592.000000pt" height="591.000000pt" viewBox="0 0 592.000000 591.000000"
 preserveAspectRatio="xMidYMid meet">

<g transform="translate(0.000000,591.000000) scale(0.100000,-0.100000)"
fill="#000000" stroke="none">
<path d="M1919 4811 c-27 -27 -29 -35 -29 -101 0 -66 2 -74 29 -101 l29 -29
1006 0 c693 0 1012 3 1029 11 12 6 29 19 36 30 19 31 25 112 11 153 -23 70 42
66 -1075 66 l-1007 0 -29 -29z m2031 -101 l0 -40 -990 0 -990 0 0 40 0 40 990
0 990 0 0 -40z"/>
<path d="M2060 4162 c0 -238 4 -411 11 -447 21 -117 65 -177 222 -307 62 -51
171 -142 242 -204 72 -61 163 -136 204 -168 l73 -56 148 0 148 0 58 43 c33 24
95 74 139 112 44 37 157 131 250 209 178 150 233 203 261 258 41 78 44 118 44
541 l0 407 -39 0 -40 0 -3 -422 c-3 -416 -3 -424 -26 -469 -28 -58 -81 -112
-217 -224 -61 -49 -162 -134 -225 -189 -63 -54 -141 -118 -172 -142 l-56 -44
-120 0 -120 0 -79 63 c-73 57 -288 238 -457 383 -84 72 -131 131 -146 182 -6
23 -10 196 -10 450 l0 412 -45 0 -45 0 0 -388z"/>
<path d="M2764 2893 c-27 -20 -132 -107 -234 -193 -102 -85 -222 -186 -267
-223 -125 -103 -172 -172 -192 -282 -7 -36 -11 -209 -11 -447 l0 -388 45 0 44
0 3 433 c3 394 5 435 21 465 28 52 83 108 197 201 58 47 152 127 211 177 58
50 140 118 183 152 l77 62 121 0 121 0 71 -57 c39 -32 130 -107 201 -168 72
-61 164 -138 205 -172 97 -78 176 -163 198 -210 15 -34 17 -88 20 -460 l3
-423 40 0 40 0 -3 428 c-3 419 -3 428 -26 484 -29 72 -87 136 -221 246 -58 48
-168 140 -245 205 -76 66 -165 139 -198 163 l-60 44 -148 0 -147 0 -49 -37z"/>
<path d="M1915 1305 c-22 -21 -25 -33 -25 -100 0 -67 3 -79 24 -100 13 -13 39
-26 57 -30 19 -3 478 -5 1021 -3 l986 3 26 24 c46 44 47 161 1 207 l-24 24
-1021 0 -1021 0 -24 -25z m2035 -100 l0 -45 -990 0 -990 0 0 45 0 45 990 0
990 0 0 -45z"/>
</g>
</svg>
