<?xml version="1.0" standalone="no"?>
<!DOCTYPE svg PUBLIC "-//W3C//DTD SVG 20010904//EN"
 "http://www.w3.org/TR/2001/REC-SVG-20010904/DTD/svg10.dtd">
<svg version="1.0" xmlns="http://www.w3.org/2000/svg"
 width="592.000000pt" height="591.000000pt" viewBox="0 0 592.000000 591.000000"
 preserveAspectRatio="xMidYMid meet">

<g transform="translate(0.000000,591.000000) scale(0.100000,-0.100000)"
fill="#000000" stroke="none">
<path d="M1158 4124 c-64 -15 -119 -41 -161 -76 -51 -42 -218 -284 -341 -494
-47 -81 -87 -136 -102 -145 -66 -35 -118 -160 -133 -321 -9 -95 -13 -108 -39
-136 -41 -44 -52 -99 -52 -264 0 -161 8 -203 49 -246 27 -29 130 -70 149 -58
4 2 6 22 4 44 -4 38 -6 41 -48 51 -24 6 -48 20 -54 30 -6 12 -10 92 -10 191 0
168 0 171 25 195 36 37 90 35 113 -5 14 -25 23 -30 55 -30 32 0 37 3 37 23 0
52 -53 104 -124 121 l-29 7 7 75 c9 100 40 195 75 233 l29 31 750 0 751 0 -20
-44 c-14 -32 -23 -86 -30 -183 -16 -207 3 -420 51 -557 11 -33 19 -61 17 -62
-2 -2 -157 -4 -345 -4 l-342 -1 0 -44 0 -45 1460 0 1460 0 0 45 0 45 -155 0
-155 0 0 324 c0 178 -3 338 -6 355 l-6 31 160 0 160 0 113 -122 c62 -68 118
-129 125 -137 10 -11 17 -10 43 8 33 24 39 45 19 58 -12 7 -239 250 -281 300
l-19 21 39 -4 c262 -29 438 -56 558 -85 150 -37 141 -31 166 -116 27 -89 77
-171 142 -230 l47 -43 -70 0 -70 0 0 -45 0 -45 125 7 125 6 0 -161 c0 -95 -4
-171 -11 -185 -15 -33 -59 -57 -119 -64 l-50 -6 0 -38 0 -39 44 0 c57 0 124
24 160 58 50 48 56 75 56 271 0 175 -1 183 -30 263 -80 218 -218 365 -399 422
-156 49 -422 92 -760 121 l-173 15 -314 308 c-185 181 -334 318 -363 335 -100
57 -92 57 -1216 56 -844 -1 -1040 -3 -1087 -15z m2187 -81 c22 -8 -259 -12
-1089 -12 -616 -1 -1117 2 -1114 5 18 18 243 22 1158 20 712 -2 1024 -5 1045
-13z m-1325 -353 l0 -250 -665 0 -666 0 17 33 c28 53 173 284 207 329 18 24
47 64 65 91 l33 47 504 0 505 0 0 -250z m140 0 l0 -250 -30 0 -30 0 0 250 0
250 30 0 30 0 0 -250z m1255 118 c386 -394 363 -368 330 -368 -24 0 -33 7 -45
33 -24 52 -75 70 -212 75 l-118 4 0 -56 0 -56 -565 0 -565 0 0 250 0 250 523
0 522 0 130 -132z m347 -118 l253 -249 -63 -1 -62 0 -163 168 c-89 92 -198
204 -241 250 l-80 82 51 0 51 0 254 -250z m-142 -250 c25 -25 26 -61 1 -91
-16 -20 -30 -24 -95 -27 l-76 -4 0 71 0 71 75 0 c62 0 79 -4 95 -20z m-250
-150 l0 -60 73 0 c89 0 184 16 215 37 13 8 33 30 44 49 20 34 21 34 92 34 66
0 75 -2 98 -27 63 -68 63 -64 66 -460 l3 -363 -870 0 -870 0 -19 53 c-47 126
-57 200 -57 437 0 235 5 273 47 333 l19 27 580 0 579 0 0 -60z m885 30 l29
-30 -132 0 c-124 0 -132 1 -146 22 -9 12 -16 26 -16 30 0 5 53 8 118 8 l118 0
29 -30z m1056 -307 c23 -35 40 -66 37 -68 -15 -15 -138 145 -138 179 0 18 61
-48 101 -111z"/>
<path d="M940 2763 l0 -118 -83 83 -82 82 -31 -31 -31 -31 81 -79 81 -78 -100
-2 c-55 -1 -108 -1 -117 0 -15 2 -18 -6 -18 -43 l0 -46 117 0 118 0 -83 -83
-82 -83 30 -29 30 -29 85 84 85 85 0 -123 0 -123 42 3 42 3 -3 113 c-1 65 1
112 7 112 5 0 43 -35 85 -79 l75 -79 31 32 31 31 -82 82 -83 83 118 0 117 0 0
45 0 45 -117 0 -118 0 80 80 79 80 -29 30 -29 30 -84 -82 -84 -83 4 118 3 117
-42 0 -43 0 0 -117z m65 -203 c24 -27 13 -50 -25 -50 -26 0 -30 3 -30 28 0 47
24 56 55 22z"/>
<path d="M4770 2763 l0 -118 -83 83 -82 82 -31 -31 -31 -31 81 -79 81 -78
-100 -2 c-55 -1 -108 -1 -117 0 -15 2 -18 -6 -18 -43 l0 -46 117 0 118 0 -85
-85 -84 -85 29 -30 29 -30 88 87 88 88 0 -123 0 -123 42 3 42 3 -3 113 c-1 65
1 112 7 112 5 0 43 -35 85 -79 l75 -79 31 32 31 31 -82 82 -83 83 118 0 117 0
0 45 0 45 -117 0 -118 0 80 80 79 80 -29 30 -29 30 -84 -82 -84 -83 4 118 3
117 -42 0 -43 0 0 -117z m58 -195 c7 -7 12 -22 12 -35 0 -19 -5 -23 -30 -23
-26 0 -30 4 -30 28 0 42 22 56 48 30z"/>
<path d="M1312 2260 l3 -41 1565 1 1565 0 3 40 3 40 -1571 0 -1571 0 3 -40z"/>
</g>
</svg>
