<?xml version="1.0" standalone="no"?>
<!DOCTYPE svg PUBLIC "-//W3C//DTD SVG 20010904//EN"
 "http://www.w3.org/TR/2001/REC-SVG-20010904/DTD/svg10.dtd">
<svg version="1.0" xmlns="http://www.w3.org/2000/svg"
 width="591.000000pt" height="591.000000pt" viewBox="0 0 591.000000 591.000000"
 preserveAspectRatio="xMidYMid meet">

<g transform="translate(0.000000,591.000000) scale(0.100000,-0.100000)"
fill="#000000" stroke="none">
<path d="M2710 4523 c-652 -85 -1181 -549 -1343 -1178 -36 -139 -47 -233 -47
-400 0 -682 438 -1282 1090 -1494 324 -105 648 -104 975 4 151 49 256 100 381
183 350 234 584 583 676 1006 19 86 22 132 22 311 0 179 -3 225 -22 311 -136
627 -606 1096 -1234 1235 -71 16 -138 21 -278 24 -102 2 -201 1 -220 -2z m319
-104 c418 -39 793 -251 1051 -594 34 -44 92 -143 130 -220 111 -224 153 -403
153 -650 0 -171 -18 -298 -65 -445 -163 -512 -578 -887 -1111 -1002 -138 -30
-426 -32 -562 -5 -302 61 -554 196 -770 412 -211 210 -342 454 -406 755 -29
136 -32 396 -6 537 122 664 669 1160 1342 1216 85 7 134 7 244 -4z"/>
<path d="M2705 4034 c-271 -48 -511 -195 -680 -415 -64 -83 -117 -183 -113
-216 4 -34 -3 -32 337 -123 146 -39 267 -72 269 -75 3 -2 -2 -15 -11 -29 -27
-41 -57 -143 -57 -196 0 -27 -3 -50 -7 -50 -5 0 -134 34 -288 75 -154 41 -292
75 -307 75 -39 0 -48 -25 -48 -133 0 -431 268 -834 665 -1000 157 -66 256 -83
275 -48 6 12 10 132 10 321 l0 301 63 -7 c76 -9 77 -9 160 -1 l67 8 0 -304 c0
-352 -2 -344 78 -334 28 3 86 18 129 33 445 152 743 571 743 1042 0 87 -16
122 -54 122 -13 0 -149 -34 -302 -75 -153 -41 -282 -75 -286 -75 -4 0 -8 19
-8 43 0 49 -23 134 -52 190 -11 22 -17 41 -15 43 2 3 130 38 283 79 153 41
289 79 302 85 36 16 28 57 -30 154 -92 153 -257 311 -418 399 -193 106 -481
151 -705 111z m450 -123 c98 -26 228 -87 309 -145 74 -53 202 -185 252 -260
20 -31 35 -58 33 -60 -5 -4 -490 -133 -535 -142 -24 -4 -41 1 -80 25 -144 92
-334 92 -477 1 -26 -16 -53 -30 -60 -30 -29 0 -557 145 -557 154 0 5 24 41 53
80 164 218 374 351 625 396 88 16 349 5 437 -19z m-134 -680 c72 -34 116 -77
151 -148 27 -56 32 -77 32 -137 0 -126 -67 -231 -183 -285 -75 -35 -183 -36
-252 -2 -220 106 -254 392 -64 537 86 66 219 80 316 35z m-826 -345 l269 -73
34 -65 c19 -40 55 -86 87 -117 l55 -52 0 -290 c0 -180 -4 -289 -10 -289 -26 0
-181 64 -239 99 -241 144 -423 405 -470 675 -13 69 -15 186 -3 186 4 0 128
-33 277 -74z m1682 -23 c-21 -358 -285 -709 -626 -833 -45 -17 -88 -30 -97
-30 -13 0 -15 35 -12 288 l3 287 60 60 c34 33 74 87 91 119 l30 60 264 72
c146 40 271 72 279 73 11 1 13 -17 8 -96z"/>
<path d="M2162 3178 c-16 -16 -15 -63 1 -76 6 -5 52 -19 102 -30 80 -19 92
-20 112 -6 27 17 30 55 6 76 -18 16 -142 48 -185 48 -13 0 -29 -5 -36 -12z"/>
<path d="M3485 3171 c-39 -9 -76 -20 -83 -25 -18 -11 -14 -61 7 -80 17 -15 24
-15 105 4 111 26 126 34 126 68 0 56 -34 63 -155 33z"/>
</g>
</svg>
