<?xml version="1.0" standalone="no"?>
<!DOCTYPE svg PUBLIC "-//W3C//DTD SVG 20010904//EN"
 "http://www.w3.org/TR/2001/REC-SVG-20010904/DTD/svg10.dtd">
<svg version="1.0" xmlns="http://www.w3.org/2000/svg"
 width="2012.000000pt" height="1747.000000pt" viewBox="0 0 2012.000000 1747.000000"
 preserveAspectRatio="xMidYMid meet">

<g transform="translate(0.000000,1747.000000) scale(0.100000,-0.100000)"
fill="#000000" stroke="none">
<path d="M12966 3045 c-149 -53 -225 -200 -182 -350 23 -77 98 -154 175 -180
135 -45 279 16 347 147 26 50 30 146 9 209 -46 139 -213 223 -349 174z"/>
<path d="M8202 1220 l400 -1000 202 0 201 0 74 188 c41 103 206 520 368 927
162 407 307 773 323 813 l28 72 -202 0 -201 0 -294 -740 c-162 -407 -297 -740
-300 -740 -4 0 -139 333 -301 740 l-295 740 -202 0 -201 0 400 -1000z"/>
<path d="M12830 1220 l0 -1000 190 0 190 0 0 1000 0 1000 -190 0 -190 0 0
-1000z"/>
<path d="M990 2195 c-362 -81 -643 -339 -753 -690 -128 -410 35 -869 396
-1114 78 -53 226 -119 323 -143 126 -32 341 -32 467 0 290 72 530 261 661 519
14 29 26 57 26 63 0 6 -71 10 -208 10 l-208 0 -70 -68 c-136 -134 -322 -197
-508 -173 -428 56 -670 511 -479 900 45 90 158 211 243 258 243 137 545 96
744 -99 l70 -68 208 0 c137 0 208 4 208 10 0 17 -50 111 -93 175 -53 79 -167
196 -243 251 -85 61 -203 118 -309 150 -78 23 -111 27 -250 30 -114 3 -179 -1
-225 -11z"/>
<path d="M3570 2191 c-404 -88 -699 -392 -776 -797 -22 -118 -15 -315 16 -429
123 -458 553 -771 1020 -742 249 16 471 116 646 291 345 344 391 884 109 1281
-60 84 -208 222 -291 270 -175 103 -291 136 -494 141 -115 3 -163 0 -230 -15z
m334 -366 c230 -49 420 -233 477 -465 19 -78 17 -232 -5 -305 -113 -381 -533
-565 -889 -387 -101 50 -220 170 -270 272 -67 135 -83 283 -47 424 84 328 406
530 734 461z"/>
<path d="M6236 2195 c-343 -71 -616 -297 -738 -612 -65 -167 -68 -199 -68
-810 l0 -553 185 0 185 0 0 533 c0 499 1 539 20 611 89 349 450 553 790 447
178 -56 339 -210 400 -383 36 -103 40 -172 40 -695 l0 -513 185 0 185 0 0 539
c0 579 -4 630 -53 776 -56 164 -132 280 -264 405 -126 120 -264 197 -430 241
-102 28 -336 35 -437 14z"/>
<path d="M10980 2191 c-404 -88 -699 -392 -776 -797 -22 -118 -15 -315 16
-429 124 -460 553 -771 1025 -741 245 15 467 115 641 290 177 176 276 397 291
647 28 472 -282 897 -745 1021 -112 30 -336 34 -452 9z m334 -366 c230 -49
420 -233 477 -465 19 -78 17 -232 -5 -305 -113 -381 -533 -565 -889 -387 -101
50 -220 170 -270 272 -67 135 -83 283 -47 424 84 328 406 530 734 461z"/>
</g>
</svg>
