<?xml version="1.0" standalone="no"?>
<!DOCTYPE svg PUBLIC "-//W3C//DTD SVG 20010904//EN"
 "http://www.w3.org/TR/2001/REC-SVG-20010904/DTD/svg10.dtd">
<svg version="1.0" xmlns="http://www.w3.org/2000/svg"
 width="592.000000pt" height="592.000000pt" viewBox="0 0 592.000000 592.000000"
 preserveAspectRatio="xMidYMid meet">

<g transform="translate(0.000000,592.000000) scale(0.100000,-0.100000)"
fill="#000000" stroke="none">
<path d="M2764 4956 c-10 -8 -53 -83 -94 -168 l-75 -153 -173 -25 c-191 -29
-215 -40 -215 -101 0 -28 17 -49 128 -158 l128 -126 -27 -155 c-31 -181 -32
-212 -8 -232 41 -36 56 -33 222 53 l159 83 163 -83 c148 -76 166 -82 191 -72
52 20 54 44 23 236 l-28 173 127 124 c113 109 128 128 128 157 0 61 -23 72
-215 101 l-173 25 -75 154 c-42 84 -84 159 -95 167 -24 18 -66 18 -91 0z m124
-234 c50 -103 79 -152 95 -159 13 -6 94 -21 180 -34 l157 -23 -125 -126 c-69
-70 -125 -132 -125 -138 0 -6 11 -76 25 -154 14 -78 25 -151 25 -161 0 -16
-24 -6 -145 57 -80 42 -154 76 -165 76 -11 0 -85 -34 -163 -75 -79 -41 -146
-75 -148 -75 -3 0 7 71 23 158 15 86 27 163 28 171 0 8 -56 71 -125 141 l-125
126 157 24 c87 12 167 27 179 32 13 6 48 65 94 159 41 82 77 149 80 149 4 0
39 -67 78 -148z"/>
<path d="M1367 4039 c-10 -6 -53 -82 -97 -170 -44 -87 -86 -159 -93 -159 -6 0
-84 -11 -171 -24 -147 -21 -161 -25 -183 -50 -13 -15 -23 -37 -23 -48 0 -14
46 -68 130 -153 l131 -132 -30 -169 c-33 -186 -31 -205 22 -234 27 -15 32 -13
191 69 l163 84 157 -82 c172 -90 200 -95 233 -44 16 25 16 34 -10 187 -15 89
-27 170 -27 180 0 11 53 70 125 140 109 105 125 125 125 152 0 65 -18 74 -212
102 l-175 25 -69 140 c-38 77 -80 153 -92 169 -25 29 -62 36 -95 17z m118
-239 c51 -102 83 -154 98 -160 12 -6 93 -20 180 -33 l158 -22 -126 -124 c-79
-79 -125 -132 -125 -145 0 -11 12 -87 26 -169 14 -82 24 -151 21 -153 -3 -3
-70 29 -149 70 -80 42 -152 76 -162 76 -9 0 -84 -36 -166 -79 -83 -43 -150
-78 -150 -77 0 0 13 75 29 165 18 101 26 173 21 185 -4 12 -60 72 -124 135
-64 62 -116 115 -114 116 2 1 73 12 158 24 85 13 165 29 178 37 13 8 53 77 95
159 39 80 73 145 74 145 2 0 37 -68 78 -150z"/>
<path d="M4132 4034 c-13 -9 -55 -82 -96 -168 l-73 -152 -159 -23 c-174 -25
-210 -35 -224 -62 -26 -48 -14 -68 120 -198 l129 -126 -30 -172 c-34 -195 -31
-219 28 -236 28 -9 47 -1 189 73 l158 83 161 -83 c154 -81 162 -83 192 -71 54
22 56 46 23 236 l-29 170 129 126 c134 130 146 150 120 198 -14 27 -50 37
-224 62 l-159 22 -74 154 c-41 84 -84 160 -96 168 -28 19 -57 19 -85 -1z m117
-228 c43 -90 78 -150 92 -159 13 -9 93 -25 179 -38 85 -12 157 -24 160 -26 2
-2 -50 -57 -118 -121 -142 -136 -134 -110 -97 -323 14 -79 23 -144 21 -147 -3
-2 -70 30 -149 72 -80 42 -153 76 -162 76 -9 0 -82 -34 -162 -76 -79 -42 -146
-74 -148 -72 -3 2 7 69 20 149 14 79 25 158 25 174 0 25 -19 48 -122 147 -68
64 -121 118 -118 121 3 2 75 14 160 26 85 13 165 29 178 37 14 9 50 72 92 160
38 79 71 144 75 144 3 0 36 -65 74 -144z"/>
<path d="M3195 3293 c-16 -8 -49 -31 -73 -51 -64 -51 -428 -380 -576 -520 -71
-67 -133 -122 -136 -122 -4 0 -13 14 -20 31 -7 16 -31 49 -54 72 -136 140
-366 122 -475 -37 -61 -88 -62 -101 -59 -763 l3 -598 28 -57 c34 -70 110 -140
174 -162 26 -9 76 -16 112 -16 83 0 169 38 223 98 l38 42 567 0 c350 0 582 4
604 10 132 37 191 180 120 292 l-29 45 31 29 c75 71 77 196 3 263 l-26 25 29
30 c36 38 51 75 51 128 0 47 -33 124 -61 141 -16 10 -15 14 16 48 78 87 52
224 -53 286 -43 25 -56 28 -199 33 -119 5 -158 10 -169 22 -17 17 -20 5 101
343 39 107 47 142 47 200 1 129 -52 205 -140 205 -26 -1 -60 -8 -77 -17z m111
-84 c16 -17 19 -36 18 -103 0 -76 -5 -94 -73 -276 -87 -230 -94 -272 -58 -316
35 -41 77 -52 237 -60 148 -7 181 -18 205 -64 19 -37 19 -65 -1 -100 -29 -48
-62 -60 -169 -60 l-96 0 3 -42 3 -43 100 -5 c110 -5 137 -16 160 -60 19 -37
19 -65 -1 -100 -29 -48 -62 -60 -169 -60 l-96 0 3 -42 3 -43 100 -5 c108 -5
142 -19 163 -66 16 -34 15 -59 -3 -94 -22 -43 -50 -54 -150 -60 l-90 -5 0 -40
0 -40 75 -5 c85 -6 113 -18 135 -60 19 -36 19 -63 1 -99 -33 -63 -10 -61 -623
-61 l-558 0 3 606 2 606 38 28 c20 14 73 61 117 104 149 144 605 551 638 569
42 22 60 22 83 -4z m-1088 -521 c23 -11 54 -34 67 -52 56 -74 55 -56 55 -698
0 -393 -4 -606 -11 -632 -6 -23 -29 -57 -57 -85 -92 -91 -215 -95 -308 -9 -78
72 -75 45 -72 739 l3 615 28 42 c67 102 182 133 295 80z"/>
</g>
</svg>
