<?xml version="1.0" standalone="no"?>
<!DOCTYPE svg PUBLIC "-//W3C//DTD SVG 20010904//EN"
 "http://www.w3.org/TR/2001/REC-SVG-20010904/DTD/svg10.dtd">
<svg version="1.0" xmlns="http://www.w3.org/2000/svg"
 width="592.000000pt" height="591.000000pt" viewBox="0 0 592.000000 591.000000"
 preserveAspectRatio="xMidYMid meet">

<g transform="translate(0.000000,591.000000) scale(0.100000,-0.100000)"
fill="#000000" stroke="none">
<path d="M3110 4901 c-218 -70 -498 -285 -616 -473 l-25 -39 -38 34 c-63 57
-112 70 -243 65 -126 -4 -167 -19 -226 -80 l-32 -34 -55 53 c-215 209 -675
369 -841 294 -84 -38 -143 -176 -151 -356 -7 -147 7 -239 44 -277 36 -39 97
-74 185 -108 l71 -28 -54 -15 c-80 -24 -139 -66 -192 -138 -117 -160 -138
-190 -199 -289 -36 -58 -86 -141 -112 -186 -26 -45 -58 -87 -73 -95 -65 -35
-117 -160 -132 -321 -9 -95 -13 -108 -39 -136 -41 -44 -52 -99 -52 -257 0
-215 24 -268 133 -300 31 -9 60 -14 65 -11 4 2 6 22 4 44 -4 38 -6 41 -48 51
-24 6 -48 20 -54 30 -6 12 -10 92 -10 191 0 168 0 171 25 195 36 37 90 35 113
-5 14 -25 23 -30 55 -30 32 0 37 3 37 24 0 43 -41 89 -99 111 l-53 20 7 73 c8
98 39 193 74 231 l29 31 676 0 676 0 0 -425 0 -425 -237 -1 c-131 -1 -248 0
-260 1 -21 1 -23 -3 -23 -44 l0 -46 260 0 260 0 0 -55 0 -55 -326 0 -325 0 3
-41 3 -42 320 2 320 2 10 -23 c10 -23 10 -23 225 -23 214 0 215 0 225 23 l10
22 1010 0 1010 -1 3 41 3 40 -1015 0 -1016 0 0 55 0 55 970 0 970 0 0 45 0 45
-155 0 -155 0 0 324 c0 178 -3 338 -6 355 l-6 31 160 0 160 0 113 -122 c62
-68 118 -129 124 -137 11 -11 18 -9 44 10 33 24 39 43 19 56 -12 7 -239 250
-281 300 l-19 21 39 -4 c312 -34 503 -66 635 -105 l67 -19 22 -77 c27 -89 77
-171 142 -230 l47 -43 -70 0 -70 0 0 -45 0 -45 125 7 125 6 0 -161 c0 -95 -4
-171 -11 -185 -15 -33 -59 -57 -119 -64 l-50 -6 0 -38 0 -39 44 0 c57 0 124
24 160 58 50 48 56 75 56 271 0 168 -2 185 -26 253 -72 203 -208 360 -362 418
-137 52 -457 106 -791 135 l-183 15 -317 311 c-342 336 -373 359 -496 379 -33
5 -239 10 -457 10 l-397 0 16 29 17 28 42 -18 c132 -59 437 -13 669 101 117
57 225 136 273 200 34 45 35 46 29 125 -7 99 -38 220 -77 302 -31 66 -106 155
-152 179 -36 19 -111 17 -178 -5z m148 -78 c46 -82 -244 -376 -495 -502 -79
-39 -174 -66 -207 -57 -117 29 157 342 432 494 131 72 250 101 270 65z m107
-133 c26 -52 58 -176 69 -267 6 -48 4 -54 -25 -88 -132 -150 -453 -275 -708
-275 -117 0 -155 18 -159 76 l-3 41 60 6 c212 22 579 282 702 497 19 33 35 60
36 60 2 0 14 -23 28 -50z m-2020 -65 c222 -64 473 -221 529 -329 19 -38 8 -53
-47 -61 -94 -14 -315 47 -480 132 -112 58 -234 149 -270 200 -52 76 -31 96 93
89 48 -3 124 -16 175 -31z m-181 -243 c205 -142 507 -245 669 -228 l57 6 0
-54 0 -55 -55 -20 c-86 -32 -187 -44 -340 -39 -172 6 -290 33 -406 91 -116 59
-120 67 -122 218 -1 68 4 149 11 180 l13 57 50 -53 c28 -30 83 -76 123 -103z
m1147 16 c94 -32 129 -93 129 -224 -1 -175 -60 -234 -237 -234 -106 0 -161 22
-201 82 -22 34 -27 54 -30 128 -6 132 26 202 113 241 47 22 173 26 226 7z
m-376 -428 c3 -6 -4 -10 -17 -10 -18 0 -20 2 -8 10 19 12 18 12 25 0z m25
-105 c0 -13 -52 -15 -412 -15 -226 0 -409 2 -406 5 15 15 164 23 476 24 298 1
342 -1 342 -14z m196 -10 c38 -4 95 -2 127 3 l57 9 0 -899 0 -898 -150 0 -150
0 0 905 0 905 24 -10 c13 -4 54 -11 92 -15z m1189 7 c22 -7 -99 -11 -447 -11
-431 -1 -478 1 -478 15 0 14 43 15 448 11 276 -2 458 -8 477 -15z m-1385 -352
l0 -250 -635 0 -636 0 17 33 c28 53 173 284 207 329 18 24 47 64 65 91 l33 47
474 0 475 0 0 -250z m1460 113 c377 -385 358 -363 325 -363 -24 0 -33 7 -45
33 -24 52 -75 70 -212 75 l-118 4 0 -56 0 -56 -475 0 -475 0 0 250 0 250 433
0 432 0 135 -137z m342 -113 l253 -249 -62 -1 -63 0 -152 158 c-84 86 -193
199 -242 250 l-90 92 52 0 51 0 253 -250z m-142 -250 c25 -25 26 -61 1 -91
-16 -20 -30 -24 -95 -27 l-76 -4 0 71 0 71 75 0 c62 0 79 -4 95 -20z m-250
-151 l0 -62 108 6 c59 3 124 11 145 18 39 13 87 59 87 85 0 11 17 14 78 14 72
0 80 -2 104 -27 63 -68 63 -64 66 -460 l3 -363 -771 0 -770 0 0 425 0 425 475
0 475 0 0 -61z m885 31 l29 -30 -132 0 c-124 0 -132 1 -146 22 -9 12 -16 26
-16 30 0 5 53 8 118 8 l118 0 29 -30z m1056 -307 c23 -35 40 -66 37 -68 -15
-15 -138 145 -138 179 0 18 61 -48 101 -111z"/>
<path d="M940 2583 l0 -118 -83 83 -82 82 -31 -31 -31 -31 81 -79 81 -78 -100
-2 c-55 -1 -108 -1 -117 0 -15 2 -18 -6 -18 -43 l0 -46 117 0 118 0 -83 -83
-82 -83 30 -29 30 -29 85 84 85 85 0 -123 0 -123 42 3 42 3 -3 113 c-1 65 1
112 7 112 5 0 43 -35 85 -79 l75 -79 31 32 31 31 -82 82 -83 83 118 0 117 0 0
45 0 45 -117 0 -118 0 80 80 79 80 -29 30 -29 30 -84 -82 -84 -83 4 118 3 117
-42 0 -43 0 0 -117z m65 -203 c24 -27 13 -50 -25 -50 -26 0 -30 3 -30 28 0 47
24 56 55 22z"/>
<path d="M4770 2583 l0 -118 -83 83 -82 82 -31 -31 -31 -31 81 -79 81 -78
-100 -2 c-55 -1 -108 -1 -117 0 -15 2 -18 -6 -18 -43 l0 -46 117 0 118 0 -83
-83 -82 -83 30 -29 30 -29 85 84 85 85 0 -123 0 -123 42 3 42 3 -3 113 c-1 65
1 112 7 112 5 0 43 -35 85 -79 l75 -79 31 32 31 31 -82 82 -83 83 118 0 117 0
0 45 0 45 -117 0 -118 0 80 80 79 80 -29 30 -29 30 -84 -82 -84 -83 4 118 3
117 -42 0 -43 0 0 -117z m63 -204 c15 -24 1 -49 -28 -49 -21 0 -25 5 -25 28 0
16 3 32 7 36 11 10 35 3 46 -15z"/>
</g>
</svg>
