<?xml version="1.0" encoding="UTF-8" standalone="no"?>
<!DOCTYPE svg PUBLIC "-//W3C//DTD SVG 1.1//EN" "http://www.w3.org/Graphics/SVG/1.1/DTD/svg11.dtd">
<svg width="100%" height="100%" viewBox="0 0 24 24" version="1.1" xmlns="http://www.w3.org/2000/svg" xmlns:xlink="http://www.w3.org/1999/xlink" xml:space="preserve" xmlns:serif="http://www.serif.com/" style="fill-rule:evenodd;clip-rule:evenodd;stroke-linejoin:round;stroke-miterlimit:2;">
    <g>
        <path d="M22.675,0L1.325,0C0.593,0 0,0.593 0,1.325L0,22.676C0,23.407 0.593,24 1.325,24L12.82,24L12.82,14.706L9.692,14.706L9.692,11.084L12.82,11.084L12.82,8.413C12.82,5.313 14.713,3.625 17.479,3.625C18.804,3.625 19.942,3.724 20.274,3.768L20.274,7.008L18.356,7.009C16.852,7.009 16.561,7.724 16.561,8.772L16.561,11.085L20.148,11.085L19.681,14.707L16.561,14.707L16.561,24L22.677,24C23.407,24 24,23.407 24,22.675L24,1.325C24,0.593 23.407,0 22.675,0Z" style="fill:rgb(253,201,71);fill-rule:nonzero;"/>
    </g>
</svg>
